<?xml version='1.0' encoding='UTF-8'?>
<svg xmlns="http://www.w3.org/2000/svg" version="1.1" width="84" height="80">
<path d="M0 0 C2.01822917 0.06510417 4.03645833 0.13020833 6.0546875 0.1953125 C6.7146875 1.5153125 7.3746875 2.8353125 8.0546875 4.1953125 C20.2646875 4.1953125 32.4746875 4.1953125 45.0546875 4.1953125 C45.18074981 11.76138577 45.30090814 19.3236268 45.3651886 26.88983917 C45.39679063 30.41359169 45.43896944 33.93646929 45.50732422 37.4597168 C45.58537539 41.50838371 45.61417383 45.55613347 45.640625 49.60546875 C45.67159271 50.85989273 45.70256042 52.11431671 45.73446655 53.40675354 C45.7382151 63.17293704 45.7382151 63.17293704 42.20556641 67.35717773 C41.1820435 68.33212244 40.13195565 69.28010234 39.0546875 70.1953125 C38.0646875 71.1853125 37.0746875 72.1753125 36.0546875 73.1953125 C40.3446875 73.5253125 44.6346875 73.8553125 49.0546875 74.1953125 C49.0546875 52.0853125 49.0546875 29.9753125 49.0546875 7.1953125 C48.0646875 7.1953125 47.0746875 7.1953125 46.0546875 7.1953125 C46.0546875 6.2053125 46.0546875 5.2153125 46.0546875 4.1953125 C47.72080655 4.1525915 49.38851635 4.15467418 51.0546875 4.1953125 C52.0546875 5.1953125 52.0546875 5.1953125 52.17494202 8.04896545 C52.17272141 9.32581711 52.17050079 10.60266876 52.16821289 11.91821289 C52.16835892 12.620616 52.16850494 13.3230191 52.1686554 14.04670715 C52.16795622 16.37882528 52.16016367 18.7108645 52.15234375 21.04296875 C52.15047958 22.65579688 52.14905568 24.26862557 52.14805603 25.88145447 C52.14423073 30.13446607 52.13440035 34.38744374 52.12335205 38.64044189 C52.11313819 42.9770868 52.10855846 47.31373717 52.10351562 51.65039062 C52.09277809 60.16538019 52.07570153 68.68034213 52.0546875 77.1953125 C45.38802083 77.1953125 38.72135417 77.1953125 32.0546875 77.1953125 C29.86967689 77.27693114 27.68480284 77.3622159 25.5 77.44921875 C23.43948833 77.52629402 21.37893116 77.60204001 19.31835938 77.67749023 C17.91038726 77.73036955 16.50250277 77.78564527 15.09472656 77.84350586 C13.04251686 77.92727448 10.99012729 78.00148786 8.9375 78.07421875 C7.10276123 78.14491577 7.10276123 78.14491577 5.23095703 78.21704102 C-0.17180475 78.18893124 -5.56114029 77.64399352 -10.9453125 77.1953125 C-10.9453125 53.4353125 -10.9453125 29.6753125 -10.9453125 5.1953125 C-8.6353125 4.2053125 -6.3253125 3.2153125 -3.9453125 2.1953125 C-1.9453125 0.1953125 -1.9453125 0.1953125 0 0 Z M1.0546875 2.1953125 C0.3946875 2.8553125 -0.2653125 3.5153125 -0.9453125 4.1953125 C0.7046875 4.1953125 2.3546875 4.1953125 4.0546875 4.1953125 C3.0646875 3.5353125 2.0746875 2.8753125 1.0546875 2.1953125 Z M-7.9453125 7.1953125 C-7.9453125 29.3053125 -7.9453125 51.4153125 -7.9453125 74.1953125 C3.9346875 74.1953125 15.8146875 74.1953125 28.0546875 74.1953125 C28.3846875 69.9053125 28.7146875 65.6153125 29.0546875 61.1953125 C35.4896875 60.7003125 35.4896875 60.7003125 42.0546875 60.1953125 C42.0546875 42.7053125 42.0546875 25.2153125 42.0546875 7.1953125 C31.1646875 7.1953125 20.2746875 7.1953125 9.0546875 7.1953125 C8.7246875 11.4853125 8.3946875 15.7753125 8.0546875 20.1953125 C5.4146875 20.1953125 2.7746875 20.1953125 0.0546875 20.1953125 C0.0546875 16.8953125 0.0546875 13.5953125 0.0546875 10.1953125 C0.7146875 9.8653125 1.3746875 9.5353125 2.0546875 9.1953125 C2.0546875 11.8353125 2.0546875 14.4753125 2.0546875 17.1953125 C3.3746875 17.1953125 4.6946875 17.1953125 6.0546875 17.1953125 C6.0546875 13.8953125 6.0546875 10.5953125 6.0546875 7.1953125 C1.4346875 7.1953125 -3.1853125 7.1953125 -7.9453125 7.1953125 Z M31.0546875 63.1953125 C31.0546875 66.1653125 31.0546875 69.1353125 31.0546875 72.1953125 C32.7253125 70.803125 32.7253125 70.803125 34.4296875 69.3828125 C35.05617188 68.86074219 35.68265625 68.33867188 36.328125 67.80078125 C38.2767923 66.11305511 38.2767923 66.11305511 40.0546875 63.1953125 C37.0846875 63.1953125 34.1146875 63.1953125 31.0546875 63.1953125 Z " fill="#000000" transform="translate(12.9453125,-0.1953125)" />
<path d="M0 0 C1.9375 1.1875 1.9375 1.1875 3 3 C3.1875 5.6875 3.1875 5.6875 3 8 C5.31 8.33 7.62 8.66 10 9 C10.02687279 10.81242052 10.04633715 12.62495233 10.0625 14.4375 C10.07410156 15.44683594 10.08570312 16.45617187 10.09765625 17.49609375 C10 20 10 20 9 21 C7.00041636 21.04080783 4.99954746 21.04254356 3 21 C3.061875 21.94875 3.12375 22.8975 3.1875 23.875 C3.0946875 25.421875 3.0946875 25.421875 3 27 C-1.06849409 29.71232939 -3.16476784 29.30699887 -8 29 C-10 27 -10 27 -10.125 23.875 C-10.08375 22.92625 -10.0425 21.9775 -10 21 C-10.94875 21.04125 -11.8975 21.0825 -12.875 21.125 C-16 21 -16 21 -18 19 C-18.265625 16.90625 -18.265625 16.90625 -18.25 14.5 C-18.25515625 13.7059375 -18.2603125 12.911875 -18.265625 12.09375 C-18 10 -18 10 -16 8 C-12.875 7.875 -12.875 7.875 -10 8 C-10.061875 7.05125 -10.12375 6.1025 -10.1875 5.125 C-10.125625 4.09375 -10.06375 3.0625 -10 2 C-6.30513897 -0.46324069 -4.36706908 -0.38991688 0 0 Z " fill="#000000" transform="translate(34,25)" />
<path d="M0 0 C1.65 0 3.3 0 5 0 C5 24.09 5 48.18 5 73 C3.35 73 1.7 73 0 73 C0 72.01 0 71.02 0 70 C0.66 70 1.32 70 2 70 C2 47.89 2 25.78 2 3 C1.34 3 0.68 3 0 3 C0 2.01 0 1.02 0 0 Z " fill="#000000" transform="translate(66,4)" />
<path d="M0 0 C2.5 0.25 2.5 0.25 4.5 2.25 C4.75 4.75 4.75 4.75 4.5 7.25 C2.5 9.25 2.5 9.25 -0.625 9.375 C-2.048125 9.313125 -2.048125 9.313125 -3.5 9.25 C-4.125 5.875 -4.125 5.875 -4.5 2.25 C-2.5 0.25 -2.5 0.25 0 0 Z " fill="#000000" transform="translate(77.5,-0.25)" />
</svg>