<svg xmlns="http://www.w3.org/2000/svg" width="400" height="400" viewBox="0 0 400 400" version="1.1">
    <circle cx="200" cy="200" r="200" fill="black"/>
	<path d="M 0.490 200.500 C 0.490 310.500, 0.607 355.352, 0.750 300.170 C 0.893 244.989, 0.893 154.989, 0.750 100.170 C 0.607 45.352, 0.490 90.500, 0.490 200.500 M 255 2.975 C 255 3.518, 253.762 4.269, 252.250 4.644 C 248.841 5.489, 241.337 12.471, 239.507 16.500 C 235.397 25.548, 234 29.022, 233.996 30.195 C 233.986 33.053, 229.145 45.098, 226.097 49.848 C 223.366 54.104, 221.236 61.758, 221.020 68.089 C 221.009 68.414, 219.875 69.192, 218.500 69.818 C 217.085 70.463, 216 71.798, 216 72.895 C 216 74.099, 215.004 75.165, 213.374 75.709 C 210.730 76.590, 207.650 82.956, 204.765 93.500 C 204.163 95.700, 203.229 97.792, 202.690 98.149 C 202.150 98.506, 201.992 99.536, 202.337 100.437 C 202.717 101.427, 202.372 102.304, 201.465 102.652 C 200.640 102.968, 200.085 103.964, 200.232 104.864 C 200.380 105.764, 199.943 106.389, 199.262 106.254 C 198.582 106.119, 196.669 108.694, 195.012 111.976 C 192.036 117.871, 191.086 123, 192.970 123 C 193.503 123, 192.861 124.590, 191.542 126.533 C 190.223 128.476, 188.832 131.514, 188.450 133.283 C 188.068 135.052, 186.933 138.127, 185.926 140.116 C 184.920 142.104, 183.558 145.929, 182.901 148.616 C 182.243 151.302, 180.215 155.559, 178.395 158.076 C 175.241 162.437, 174.623 164.256, 171.968 177 C 171.338 180.025, 169.625 184.888, 168.161 187.807 C 165.716 192.684, 165.635 193.215, 167.165 194.355 C 168.955 195.690, 168.937 195.770, 163.671 209.793 C 162.370 213.257, 162.312 214.183, 163.373 214.589 C 165.012 215.218, 200.086 201.240, 201.626 199.344 C 202.245 198.582, 203.052 196.076, 203.420 193.775 C 203.788 191.475, 205.055 188.029, 206.235 186.119 C 207.416 184.209, 207.846 182.977, 207.191 183.382 C 204.982 184.747, 205.977 180.670, 210.579 169.500 C 213.071 163.450, 215.921 155.702, 216.912 152.282 C 217.903 148.862, 219.948 144.446, 221.457 142.467 C 222.966 140.489, 226.681 133.612, 229.712 127.185 C 232.743 120.758, 236.559 112.660, 238.192 109.188 C 240.004 105.336, 242.007 102.562, 243.331 102.070 C 245.347 101.321, 245.729 101.942, 248.742 110.882 C 250.524 116.172, 252.438 123.554, 252.993 127.286 C 254.004 134.078, 257.013 144.162, 259.458 148.951 C 260.174 150.353, 261.062 153.075, 261.433 155 C 262.747 161.821, 265.069 165.870, 267.854 166.196 C 269.284 166.363, 270.914 167.400, 271.477 168.500 C 273.804 173.047, 273.800 173.046, 279.791 170.823 C 285.635 168.654, 303.227 161.094, 303.841 160.488 C 304.029 160.302, 303.886 159.217, 303.524 158.075 C 303.103 156.751, 302.015 156, 300.515 156 C 298.652 156, 297.810 155.069, 296.447 151.500 C 295.502 149.025, 294.339 147, 293.864 147 C 293.389 147, 293 144.854, 293 142.232 C 293 138.747, 292.301 136.436, 290.403 133.642 C 288.975 131.541, 286.997 126.599, 286.007 122.660 C 285.018 118.722, 283.516 113.005, 282.671 109.956 C 281.825 106.907, 280.585 100.494, 279.915 95.706 C 278.711 87.103, 278.663 87, 275.868 87 C 273.746 87, 272.915 86.437, 272.546 84.750 C 271.028 77.818, 270 70.006, 270 65.414 C 270 60.515, 270.184 60.132, 273 59.150 C 276.166 58.046, 276.418 57.160, 275.368 50.812 L 274.758 47.124 269.749 49.099 C 261.746 52.254, 262.993 50.408, 271.478 46.542 C 277.817 43.653, 279.096 42.696, 278.540 41.257 C 278.166 40.291, 277.675 33.986, 277.448 27.246 C 276.968 12.958, 275.373 8.607, 269.293 4.995 C 265.330 2.640, 255 1.180, 255 2.975 M 254.500 5 C 254.160 5.550, 254.809 6, 255.941 6 C 257.073 6, 258 5.550, 258 5 C 258 4.450, 257.352 4, 256.559 4 C 255.766 4, 254.840 4.450, 254.500 5 M 77.978 81.728 C 75.069 83.765, 71.006 93.083, 70.978 97.779 C 70.966 99.825, 70.076 103.439, 69.001 105.808 C 67.926 108.177, 66.573 111.871, 65.996 114.017 C 65.285 116.655, 64.083 118.335, 62.280 119.209 C 60.613 120.017, 59.303 121.715, 58.780 123.746 C 58.321 125.532, 56.871 128.575, 55.558 130.510 C 54.245 132.444, 52.871 135.802, 52.505 137.972 C 52.104 140.345, 51.173 142.135, 50.169 142.464 C 47.398 143.372, 43.692 154.461, 44.456 159.558 C 44.909 162.573, 44.642 164.791, 43.582 166.842 C 41.587 170.699, 39.986 176.958, 38.937 185 C 37.526 195.811, 36.822 199.008, 35.969 198.481 C 34.332 197.469, 29.702 209.491, 28.837 217 C 28.362 221.125, 27.581 226.750, 27.102 229.500 C 26.622 232.250, 26.565 234.725, 26.975 235 C 28.322 235.905, 27.235 248.421, 25.520 251.759 C 23.711 255.278, 24.080 259.230, 26.696 264.347 C 28.394 267.667, 26.833 267.999, 46 260.238 C 58.806 255.053, 60.464 254.116, 60.194 252.223 C 60.025 251.043, 60.376 249.166, 60.972 248.052 C 61.569 246.937, 62.678 242.757, 63.438 238.762 C 64.197 234.768, 65.262 229.813, 65.804 227.750 C 66.595 224.738, 66.515 224, 65.395 224 C 63.352 224, 63.652 221.806, 67.510 208.500 C 69.424 201.900, 70.992 195.596, 70.995 194.492 C 70.998 193.388, 72.074 190.463, 73.387 187.992 C 75.289 184.412, 80 171.163, 80 169.395 C 80 169.178, 79.336 169, 78.525 169 C 76.949 169, 77.162 166.541, 79.428 158.576 C 81.119 152.632, 82.644 153.085, 84.846 160.185 C 86.599 165.838, 87.060 166.472, 89.240 166.238 C 91.739 165.968, 92.454 167.745, 94.590 179.524 C 96.051 187.580, 97.976 194.026, 100.275 198.560 C 101.686 201.343, 102.806 204.268, 102.763 205.060 C 102.531 209.330, 103.158 211.229, 104.953 211.698 C 107.687 212.413, 109.892 216.158, 110.991 221.951 C 111.506 224.668, 112.598 228.496, 113.418 230.459 L 114.909 234.026 119.704 232.105 C 122.342 231.048, 129 228.354, 134.500 226.119 C 140 223.883, 145.036 222.042, 145.691 222.027 C 147.829 221.979, 148.205 219.962, 146.548 217.433 C 145.654 216.069, 143.925 212.152, 142.705 208.728 C 141.017 203.994, 140.020 202.503, 138.543 202.502 C 136.464 202.500, 133.860 196.728, 132.600 189.328 C 131.631 183.631, 129.113 173.287, 127.044 166.500 C 126.039 163.200, 124.699 158.588, 124.068 156.250 C 123.139 152.814, 122.479 152, 120.618 152 C 118.803 152, 118.066 151.163, 117.131 148.042 C 116.479 145.865, 115.506 143.813, 114.970 143.481 C 113.569 142.616, 110 134.469, 110 132.138 C 110 129.380, 106.284 121, 105.062 121 C 104.506 121, 100.608 122.368, 96.399 124.040 C 92.190 125.712, 88.583 126.916, 88.383 126.716 C 88.183 126.516, 91.371 124.880, 95.468 123.080 C 99.564 121.279, 103.398 119.225, 103.987 118.515 C 105.345 116.879, 103.318 112, 101.280 112 C 100.511 112, 100.160 111.550, 100.500 111 C 100.840 110.450, 100.304 109.990, 99.309 109.978 C 98.314 109.966, 99.431 109.080, 101.791 108.008 L 106.083 106.061 104.541 103.080 C 103.694 101.441, 103 98.137, 103 95.739 C 103 92.203, 102.409 90.775, 99.867 88.176 C 98.145 86.413, 95.557 84.691, 94.117 84.348 C 92.678 84.005, 90.957 83.298, 90.294 82.776 C 89.630 82.255, 88.638 82.106, 88.088 82.446 C 87.538 82.786, 85.535 82.415, 83.638 81.622 C 80.593 80.350, 79.928 80.362, 77.978 81.728 M 239 100 C 239 100.733, 239.300 101.033, 239.667 100.667 C 240.033 100.300, 240.033 99.700, 239.667 99.333 C 239.300 98.967, 239 99.267, 239 100 M 326.049 160.228 C 313.636 166.262, 313.594 166.274, 312.177 164.140 C 310.396 161.458, 309.982 161.470, 302.025 164.416 C 298.436 165.744, 292.012 168.098, 287.748 169.647 L 279.996 172.464 280.599 175.982 C 281.359 180.425, 284.864 188, 286.158 188 C 286.697 188, 293.214 185.085, 300.640 181.523 C 313.479 175.364, 314.257 175.122, 316.507 176.597 C 317.809 177.449, 319.181 179.576, 319.557 181.324 C 319.933 183.071, 320.909 185.806, 321.725 187.402 C 323.055 190.005, 323.043 190.396, 321.604 191.202 C 319.189 192.553, 319.649 194.596, 323.304 198.747 C 326.034 201.848, 334 217.344, 334 219.553 C 334 219.900, 334.925 221.380, 336.056 222.842 C 339.602 227.425, 346.536 238.644, 348.460 242.910 C 349.803 245.890, 350.898 247, 352.494 247 C 354.168 247, 354.955 247.907, 355.839 250.856 C 356.474 252.976, 358.724 256.689, 360.839 259.106 C 362.953 261.523, 365.321 264.850, 366.101 266.500 C 366.881 268.150, 368.415 269.627, 369.509 269.782 C 370.604 269.937, 376.225 267.614, 382 264.619 C 394.168 258.309, 393.864 259.185, 388.348 246.345 C 385.061 238.694, 384.478 237.914, 382.430 238.428 C 378.176 239.496, 377 238.216, 377 232.519 C 377 226.473, 374.818 219.500, 371.982 216.481 C 370.909 215.339, 369.156 211.860, 368.086 208.751 C 365.637 201.632, 361.919 195.255, 357.466 190.532 C 353.442 186.266, 353.098 183.561, 356.250 180.975 C 358.289 179.303, 358.349 179.006, 356.889 177.815 C 354.562 175.915, 349.179 167.660, 346.882 162.467 C 345.796 160.010, 344.508 158, 344.021 158 C 343.533 158, 342.849 157.100, 342.500 156 C 342.151 154.900, 341.108 154.040, 340.183 154.088 C 339.257 154.136, 332.897 156.899, 326.049 160.228 M 201.500 203.221 C 198.750 204.324, 190.958 207.194, 184.185 209.600 C 177.412 212.005, 171.156 214.373, 170.283 214.861 C 168.310 215.966, 167.625 219.462, 167.574 228.696 C 167.537 235.314, 167.340 235.979, 165.120 236.991 C 163.041 237.939, 162.308 237.711, 159.852 235.359 C 158.153 233.731, 157 231.578, 157 230.035 C 157 228.611, 156.299 226.445, 155.443 225.223 C 154.587 224, 154.227 223, 154.643 223 C 155.059 223, 154.946 222.546, 154.392 221.992 C 153.714 221.314, 150.452 222.249, 144.442 224.844 C 139.524 226.967, 132.467 229.706, 128.761 230.930 C 121.903 233.195, 120.164 234.365, 121.984 235.490 C 122.543 235.835, 123 237.149, 123 238.410 C 123 239.671, 124.173 242.907, 125.606 245.601 C 127.040 248.295, 129.097 252.863, 130.178 255.750 C 131.333 258.836, 132.754 261, 133.625 261 C 134.440 261, 141.218 258.075, 148.688 254.500 C 156.159 250.925, 162.660 248, 163.135 248 C 164.191 248, 164.305 251.994, 163.250 252.015 C 162.838 252.024, 161.927 252.394, 161.227 252.839 C 158.609 254.500, 170.301 276.329, 177.100 282.471 C 181.953 286.856, 187.877 287.449, 189.881 283.750 C 190.552 282.512, 192.901 280.217, 195.102 278.648 C 200.950 274.480, 204 269.123, 204 263.020 C 204 259.560, 204.405 258, 205.304 258 C 206.021 258, 208.093 256.467, 209.909 254.594 C 212.755 251.658, 213.317 250.222, 213.977 244.205 C 214.865 236.121, 215.161 235.485, 218.956 233.523 C 221.374 232.272, 221.945 231.135, 222.896 225.676 C 223.507 222.165, 224.664 217.110, 225.467 214.443 C 226.270 211.776, 226.724 209.390, 226.475 209.142 C 226.227 208.894, 221.041 211.011, 214.950 213.845 C 208.860 216.680, 203.447 219, 202.921 219 C 202.396 219, 203.062 216.838, 204.401 214.195 C 207.127 208.816, 208.617 202.493, 207.340 201.722 C 206.878 201.443, 204.250 202.117, 201.500 203.221 M 376 239.500 C 376 239.775, 376.225 240, 376.500 240 C 376.775 240, 377 239.775, 377 239.500 C 377 239.225, 376.775 239, 376.500 239 C 376.225 239, 376 239.225, 376 239.500 M 48.500 261.885 C 35.096 267.078, 33.468 267.963, 33.198 270.200 C 32.891 272.747, 33.726 275.145, 40.787 292 L 44.767 301.500 44.085 312.019 C 43.710 317.804, 43.093 323.040, 42.714 323.654 C 42.151 324.564, 40.866 360.367, 40.724 379.106 C 40.680 384.880, 43.451 389.242, 46.689 388.496 C 47.893 388.219, 49.157 388.444, 49.498 388.996 C 49.839 389.548, 51.512 390, 53.215 390 C 57.329 390, 65.562 381.370, 67.230 375.309 C 67.864 373.005, 68.744 371.342, 69.185 371.614 C 69.626 371.887, 69.947 371.073, 69.898 369.805 C 69.850 368.537, 70.779 364.575, 71.963 361 C 74.636 352.933, 76.283 338.501, 76.470 321.500 C 76.553 314.009, 77.120 307.307, 77.807 305.685 C 78.463 304.137, 79.006 300.312, 79.014 297.185 C 79.032 289.455, 79.767 287.275, 82.594 286.566 C 84.347 286.126, 85 285.271, 85 283.415 C 85 282.015, 85.486 279.960, 86.081 278.849 C 87.936 275.383, 86.181 275.472, 78.590 279.228 C 72.048 282.465, 71.301 283.124, 71.715 285.288 C 72.292 288.305, 69.169 289.951, 67.416 287.554 C 66.791 286.699, 65.296 286, 64.094 286 C 62.187 286, 61.977 285.588, 62.442 282.750 C 62.735 280.962, 63.465 275.900, 64.064 271.500 C 64.663 267.100, 65.403 261.813, 65.708 259.750 C 66.123 256.949, 65.914 256.009, 64.882 256.037 C 64.122 256.057, 56.750 258.689, 48.500 261.885 M 24.381 272.750 C 24.019 274.262, 23.451 275.950, 23.117 276.500 C 21.687 278.859, 20.282 291.071, 20.992 294.958 C 21.413 297.257, 21.333 301.019, 20.815 303.319 C 19.837 307.665, 20.436 313.533, 21.953 314.471 C 22.434 314.768, 26.502 313.234, 30.994 311.062 C 35.485 308.891, 39.628 306.957, 40.200 306.767 C 41.944 306.185, 27.829 270, 25.859 270 C 25.407 270, 24.742 271.238, 24.381 272.750 M 357.924 285.085 C 348.331 289.776, 347.667 290.283, 349.429 291.572 C 350.715 292.512, 352.675 292.773, 355.420 292.368 C 360.016 291.692, 366.479 287.914, 364.808 286.881 C 364.173 286.489, 364.562 285.957, 365.760 285.576 C 367.477 285.031, 369.547 281.214, 368.625 280.292 C 368.463 280.129, 363.647 282.286, 357.924 285.085" stroke="none" fill="#ffffff" fill-rule="evenodd"/>
</svg>