<svg version="1.1" viewBox="901.5714198473281 2.457609216 1025.6750272628135 1001.472" xmlns="http://www.w3.org/2000/svg" style="max-height: 500px" width="1025.6750272628135" height="1001.472">
	<path fill-rule="evenodd" fill="#000000" stroke="none" d="M 1372 54.577 C 1319.382 59.028, 1280.213 69.075, 1257.012 84.071 C 1247.734 90.067, 1242.555 94.673, 1236.380 102.416 C 1229.606 110.912, 1226.610 116.699, 1224.072 126.191 C 1222.284 132.878, 1222.089 137.691, 1221.778 182.750 L 1221.438 232 1315.112 232 C 1389.194 232, 1408.861 232.261, 1409.143 233.250 C 1409.339 233.938, 1409.362 240.238, 1409.193 247.250 L 1408.886 260 1314.193 260.024 C 1262.112 260.037, 1203.525 260.031, 1184 260.011 C 1164.475 259.990, 1144.675 260.453, 1140 261.040 C 1114.905 264.187, 1093.430 272.977, 1077 286.828 C 1059.378 301.684, 1048.207 317.638, 1038.719 341.500 C 1010.136 413.385, 1012.729 518.698, 1044.685 583.772 C 1056.571 607.976, 1078.621 631.253, 1098.317 640.387 C 1115.713 648.455, 1128.667 650.261, 1166 649.823 L 1193.500 649.500 1193.776 602 C 1194.043 556.093, 1194.134 554.093, 1196.508 542.367 C 1201.878 515.841, 1212.007 496.384, 1230.462 477.146 C 1247.950 458.915, 1274.358 445.879, 1301.545 442.056 C 1305.664 441.477, 1345.116 440.979, 1396.545 440.858 C 1444.920 440.744, 1489.225 440.302, 1495 439.876 C 1539.996 436.553, 1577.141 408.337, 1589.944 367.755 C 1594.994 351.746, 1595 351.610, 1595 247.049 C 1595 154.357, 1594.902 148.938, 1593.103 141.910 C 1585.307 111.459, 1558.545 84.370, 1522.094 70.033 C 1515.193 67.318, 1488.074 60.370, 1477 58.480 C 1448.586 53.630, 1403.159 51.941, 1372 54.577 M 1294.070 116.960 C 1280.377 122.049, 1271.589 132.891, 1270.343 146.233 C 1269.021 160.391, 1276.039 172.983, 1289.187 180.045 C 1294.831 183.076, 1296.348 183.438, 1303.500 183.467 C 1310.432 183.496, 1312.368 183.085, 1318 180.389 C 1336.258 171.649, 1343.063 152.923, 1334.655 134.559 C 1327.750 119.476, 1309.081 111.381, 1294.070 116.960 M 1793.775 405 C 1792.427 437.419, 1782.402 465.086, 1762.433 491.500 C 1748.014 510.573, 1730.553 524.112, 1708 533.708 C 1695.846 538.879, 1685.738 541.636, 1669.500 544.208 C 1657.856 546.054, 1650.921 546.310, 1603 546.665 C 1573.575 546.883, 1548.482 547.282, 1547.237 547.553 C 1543.819 548.296, 1539.187 553.699, 1535.282 561.500 C 1531.152 569.750, 1529.826 571.394, 1524.500 574.870 C 1521.094 577.092, 1519.386 577.481, 1513 577.490 C 1502.903 577.504, 1497.534 575.316, 1491.181 568.598 C 1485.223 562.298, 1483.573 557.383, 1484.243 547.924 C 1484.858 539.223, 1490.265 528.698, 1498.265 520.627 C 1501.467 517.396, 1503.955 514.669, 1503.793 514.567 C 1503.632 514.464, 1496.300 514.770, 1487.500 515.246 C 1474.943 515.925, 1470.962 516.486, 1469 517.850 C 1465.859 520.034, 1461.595 528.663, 1459.269 537.545 L 1457.482 544.364 1445.991 549.437 C 1429.970 556.510, 1423.831 559.991, 1412.953 568.170 C 1376.847 595.319, 1353.811 634.896, 1348.274 679.292 C 1347.848 682.706, 1347.532 693.600, 1347.571 703.500 C 1347.675 729.725, 1351.500 746.243, 1362.622 768.500 C 1380.752 804.780, 1406.254 830.713, 1440.609 847.801 C 1486.358 870.557, 1538.056 870.230, 1585.931 846.880 C 1602.453 838.822, 1613.193 831.275, 1626.642 818.272 C 1639.937 805.418, 1646.753 796.977, 1654.843 783.349 C 1668.467 760.397, 1674.341 742.468, 1677.070 715.500 C 1679.593 690.574, 1676.736 665.429, 1668.832 643 C 1663.783 628.673, 1663.292 626.209, 1665.328 625.428 C 1668.575 624.182, 1679.663 639.362, 1685.547 653.109 C 1707.906 705.348, 1707.124 762.947, 1683.310 818 C 1661.464 868.500, 1614.601 912.427, 1560.706 932.922 C 1530.422 944.438, 1508.474 948.060, 1472 947.562 C 1442.181 947.155, 1433.221 945.780, 1405 937.286 C 1374.362 928.065, 1342.048 910.289, 1315.500 888.053 C 1309.710 883.203, 1287.476 860.917, 1285.244 857.725 C 1284.003 855.951, 1281.528 852.839, 1279.744 850.810 C 1270.096 839.834, 1255.633 815.619, 1246.972 795.936 C 1241.417 783.314, 1233.718 760.077, 1229.598 743.500 C 1224.956 724.823, 1222.593 707.063, 1221.881 685.500 L 1221.716 680.500 1220.975 684.500 C 1219.850 690.574, 1220.841 730.506, 1222.552 748 C 1225.655 779.738, 1233.302 806.876, 1246.926 834.500 C 1261.684 864.425, 1279.343 888.387, 1302.500 909.912 C 1342.815 947.386, 1392.221 969.086, 1453.056 976.039 C 1463.446 977.226, 1497.788 976.892, 1506.500 975.518 C 1533.097 971.326, 1546.615 968.119, 1563.974 961.885 C 1601.331 948.469, 1639.214 923.891, 1664.901 896.404 C 1675.148 885.439, 1689.421 866.040, 1697.847 851.625 C 1718.243 816.730, 1729.334 774.613, 1729.349 732 C 1729.356 712.669, 1728.184 702.377, 1723.486 680.500 C 1717.616 653.164, 1706.239 628.678, 1690.691 609.920 C 1682.218 599.698, 1683.602 600, 1645.158 600 C 1623.872 600, 1611.895 600.361, 1611.490 601.016 C 1611.145 601.574, 1613.602 605.437, 1616.951 609.599 C 1632.668 629.137, 1640.912 645.540, 1646.781 668.956 C 1649.161 678.454, 1649.419 681.285, 1649.382 697.500 C 1649.324 722.490, 1646.197 736.535, 1636.002 757.597 C 1630.632 768.689, 1620.036 785.158, 1618.575 784.683 C 1615.583 783.713, 1611.734 760.347, 1609.567 730 C 1607.977 707.724, 1606.321 699.892, 1600.570 687.445 C 1595.651 676.798, 1589.682 668.473, 1580.454 659.388 C 1568.048 647.174, 1554.043 639.284, 1535.838 634.252 C 1526.160 631.577, 1498.311 631.879, 1487.802 634.772 C 1471.685 639.210, 1458.371 646.857, 1445.624 658.998 C 1432.942 671.079, 1425.761 682.532, 1420.060 699.777 C 1416.882 709.390, 1416.548 711.786, 1414.946 736.500 C 1413.813 753.972, 1410.959 775.455, 1409.147 780.153 C 1406.843 786.125, 1405.208 785.161, 1397.311 773.169 C 1383.028 751.481, 1375 725.234, 1375 700.224 C 1375 657.502, 1395.159 617.310, 1430.054 590.458 C 1435.576 586.210, 1458.405 574, 1460.828 574 C 1461.368 574, 1462.940 575.928, 1464.321 578.285 C 1467.687 584.029, 1475.560 592.023, 1482.175 596.416 C 1497.416 606.535, 1517.977 607.692, 1535.847 599.435 C 1541.503 596.822, 1544.984 594.268, 1550.410 588.750 C 1554.331 584.763, 1558.339 579.813, 1559.317 577.750 L 1561.094 574 1598.797 573.929 C 1638.324 573.854, 1644.875 573.649, 1662 571.956 C 1693.997 568.792, 1718.056 561.141, 1739.028 547.461 C 1743.138 544.780, 1751.236 537.842, 1757.025 532.043 C 1777.938 511.093, 1789.886 487.402, 1795.138 456.469 C 1798.273 438.004, 1798.277 410.769, 1795.148 394.500 C 1794.571 391.500, 1794.228 394.125, 1793.775 405 M 1468.987 669.276 C 1458.375 672.900, 1448.181 682.139, 1441.619 694.080 C 1437.946 700.765, 1433.486 712.819, 1434.362 713.696 C 1434.627 713.960, 1437.916 711.812, 1441.671 708.923 C 1449.912 702.582, 1461.340 697.102, 1467.953 696.319 C 1476.634 695.291, 1481.595 696.645, 1486.555 701.398 C 1490.801 705.466, 1491 705.914, 1491 711.378 C 1491 721.769, 1486.989 725.969, 1472.300 730.959 C 1461.184 734.736, 1455.496 737.813, 1449.433 743.332 C 1443.184 749.021, 1442.520 753.521, 1446.952 760.154 C 1453.153 769.435, 1471.347 780.750, 1486 784.439 C 1518.656 792.661, 1553.767 785.101, 1573.676 765.561 C 1582.685 756.719, 1583.142 752.364, 1575.884 744.490 C 1570.965 739.154, 1563.938 735.071, 1553.433 731.445 C 1539.509 726.639, 1533.623 720.976, 1533.751 712.507 C 1534.069 691.502, 1563.973 690.771, 1585.664 711.239 C 1587.404 712.881, 1589.255 713.961, 1589.777 713.638 C 1591.247 712.729, 1586.404 699.016, 1582.212 692.214 C 1577.615 684.754, 1573.563 680.182, 1567.325 675.412 C 1560.191 669.958, 1554.578 667.868, 1545.460 667.271 C 1535.965 666.649, 1529.358 667.893, 1519.747 672.111 C 1512.750 675.182, 1512.706 675.188, 1508.611 673.480 C 1495.043 667.822, 1491.872 667, 1483.705 667.026 C 1477.898 667.044, 1473.596 667.702, 1468.987 669.276 M 1463.500 708.503 C 1456.794 710.875, 1452.936 717.042, 1456.373 719.895 C 1457.929 721.186, 1460.286 720.520, 1464.158 717.697 C 1466.823 715.755, 1467.800 715.745, 1476.738 717.564 C 1479.213 718.068, 1480.123 717.843, 1480.596 716.610 C 1481.866 713.300, 1480.118 710.264, 1475.989 708.612 C 1471.127 706.667, 1468.749 706.646, 1463.500 708.503 M 1550.255 708.117 C 1545.902 709.375, 1543.443 713.091, 1545.018 716.033 C 1545.982 717.836, 1546.711 718.081, 1549.339 717.490 C 1553.912 716.463, 1561.130 716.601, 1561.867 717.731 C 1564.132 721.202, 1571 720.824, 1571 717.228 C 1571 714.765, 1565.312 709.539, 1561.101 708.134 C 1557.160 706.819, 1554.763 706.816, 1550.255 708.117 M 1503 724.709 C 1499.840 725.871, 1498 728.401, 1498 731.582 C 1498 734.145, 1498.812 735.526, 1501.750 737.955 C 1503.813 739.661, 1507.243 741.582, 1509.373 742.223 C 1512.921 743.292, 1513.706 743.143, 1518.743 740.445 C 1525.391 736.884, 1527.849 733.320, 1526.436 729.290 C 1525.776 727.409, 1524.324 726.111, 1521.979 725.306 C 1518.454 724.097, 1505.752 723.698, 1503 724.709 M 1536.957 747.336 C 1528.979 752.120, 1523.403 754.083, 1516.040 754.699 C 1507.721 755.395, 1498.542 753.138, 1490.678 748.462 C 1484.236 744.631, 1481.891 744.221, 1479.930 746.584 C 1478.147 748.732, 1479.481 750.706, 1485.454 754.760 C 1493.606 760.294, 1502.278 762.327, 1515.333 761.764 C 1528.310 761.204, 1535.303 759, 1541.829 753.414 C 1546.442 749.466, 1546.864 748.092, 1544.207 745.687 C 1542.538 744.177, 1542.034 744.292, 1536.957 747.336 M 217 1034.011 C 203.333 1035.923, 194.132 1044.311, 190.425 1058.236 C 188.285 1066.275, 188.326 1327.876, 190.470 1340.165 C 192.910 1354.158, 195.903 1362.601, 203.328 1376.434 C 208.837 1386.696, 222.583 1399.290, 235 1405.452 C 255.273 1415.513, 284.345 1416.435, 299.592 1407.499 C 315.167 1398.372, 317.712 1367.469, 303.866 1355.617 C 298.835 1351.311, 293.273 1349.736, 283.701 1349.909 C 272.930 1350.104, 268.851 1348.812, 264.613 1343.861 C 256.973 1334.935, 257.563 1346.566, 257.002 1194 C 256.501 1057.848, 256.495 1057.488, 254.394 1052.949 C 247.787 1038.670, 233.915 1031.645, 217 1034.011 M 448 1137.624 C 431.508 1139.707, 413.277 1144.840, 400.500 1150.999 C 365.882 1167.686, 340.448 1198.137, 330.338 1235 C 324.897 1254.837, 323.530 1282.208, 326.931 1303.189 C 327.974 1309.618, 329.300 1316.368, 329.878 1318.189 C 336.719 1339.727, 340.627 1348.117, 349.643 1360.623 C 364.883 1381.760, 381.116 1395.339, 403.129 1405.365 C 427.153 1416.306, 458.620 1418.821, 485.720 1411.965 C 500.155 1408.314, 521.218 1396.708, 529.946 1387.597 C 531.842 1385.619, 533.717 1384, 534.113 1384 C 534.510 1384, 535.320 1386.265, 535.914 1389.033 C 538.748 1402.247, 547.319 1410.191, 561.820 1413.044 C 569.035 1414.464, 579.530 1413.207, 586.453 1410.094 C 591.786 1407.697, 598.147 1401.280, 601.113 1395.307 L 603.500 1390.500 603.500 1325.500 C 603.500 1252.040, 603.347 1250.084, 595.817 1227.500 C 588.769 1206.359, 578.899 1190.528, 563.232 1175.235 C 544.817 1157.261, 522.639 1145.725, 495.500 1140.006 C 485.717 1137.944, 456.906 1136.500, 448 1137.624 M 918.314 1141.857 C 906.941 1145.787, 900.279 1152.880, 897.329 1164.202 C 894.167 1176.333, 893.555 1174.770, 930.601 1249.239 C 949.004 1286.233, 972.147 1332.609, 982.030 1352.298 C 991.914 1371.987, 1000 1388.549, 1000 1389.103 C 1000 1389.657, 999.144 1391.998, 998.097 1394.305 C 997.051 1396.612, 991.168 1409.750, 985.025 1423.500 C 978.881 1437.250, 971.677 1453.225, 969.016 1459 C 957.552 1483.880, 956.622 1486.882, 957.213 1497.114 C 957.566 1503.218, 958.253 1505.797, 960.676 1510.114 C 964.204 1516.402, 971.301 1522.225, 978.500 1524.738 C 985.955 1527.340, 998.144 1527.027, 1004.251 1524.075 C 1009.903 1521.343, 1018.116 1512.677, 1021.636 1505.731 C 1024.781 1499.525, 1038.966 1467.877, 1052.219 1437.500 C 1057.737 1424.850, 1063.940 1410.675, 1066.003 1406 C 1068.065 1401.325, 1072.996 1390.075, 1076.960 1381 C 1080.924 1371.925, 1085.296 1362.250, 1086.676 1359.500 C 1088.055 1356.750, 1093.836 1343.700, 1099.521 1330.500 C 1105.206 1317.300, 1111.959 1301.775, 1114.528 1296 C 1117.096 1290.225, 1122.473 1278.075, 1126.476 1269 C 1130.479 1259.925, 1135.384 1249.011, 1137.377 1244.746 C 1139.370 1240.481, 1141 1236.795, 1141 1236.555 C 1141 1236.315, 1142.730 1232.379, 1144.844 1227.809 C 1146.958 1223.239, 1150.382 1215.675, 1152.453 1211 C 1154.523 1206.325, 1158.196 1198.126, 1160.613 1192.779 C 1166.398 1179.986, 1167.439 1174.962, 1165.989 1166.848 C 1164.626 1159.221, 1161.555 1153.638, 1155.928 1148.554 C 1148.924 1142.226, 1144.013 1140.542, 1132.500 1140.519 C 1123.272 1140.502, 1122.088 1140.728, 1117.161 1143.458 C 1107.034 1149.067, 1103.514 1154.204, 1093.104 1178.573 C 1087.952 1190.633, 1080.369 1208.150, 1076.254 1217.500 C 1072.138 1226.850, 1063.248 1247.325, 1056.499 1263 C 1039.065 1303.492, 1035.637 1310.953, 1034.456 1310.978 C 1033.882 1310.990, 1031.999 1307.963, 1030.272 1304.250 C 1027.179 1297.600, 1016.027 1274.404, 1002.268 1246 C 998.404 1238.025, 990.637 1221.825, 985.007 1210 C 966.543 1171.220, 957.333 1153.669, 953.308 1149.593 C 947.288 1143.497, 938.932 1139.995, 930.500 1140.033 C 926.448 1140.052, 921.316 1140.820, 918.314 1141.857 M 663.969 1142.526 C 658.283 1144.291, 651.568 1149.966, 648.842 1155.309 C 646.204 1160.480, 645.180 1174.001, 646.949 1180.317 C 648.864 1187.157, 654.646 1193.998, 661.456 1197.482 L 667.355 1200.500 723.678 1200.789 C 761.376 1200.983, 780 1201.418, 780 1202.106 C 780 1203.436, 777.012 1207.382, 763 1224.556 C 756.675 1232.309, 749.925 1240.613, 748 1243.011 C 746.075 1245.408, 741.350 1251.024, 737.500 1255.491 C 733.650 1259.957, 725.775 1269.411, 720 1276.499 C 714.225 1283.586, 707.700 1291.489, 705.500 1294.061 C 697.938 1302.900, 688.316 1314.517, 680.287 1324.500 C 675.863 1330, 667.687 1339.900, 662.116 1346.500 C 656.546 1353.100, 650.754 1360.975, 649.245 1364 C 646.800 1368.898, 646.500 1370.596, 646.500 1379.521 C 646.500 1388.846, 646.730 1390.010, 649.814 1396.274 C 653.832 1404.436, 659.678 1409.356, 667.321 1411.008 C 670.991 1411.801, 699.026 1412.036, 763.522 1411.813 L 854.544 1411.500 861.158 1408.243 C 871.579 1403.112, 876.210 1394.946, 876.323 1381.500 C 876.431 1368.641, 871.454 1359.387, 861.649 1354.216 L 856.500 1351.500 798.250 1351.212 C 744.698 1350.947, 740 1350.790, 740 1349.260 C 740 1348.344, 741.291 1346.224, 742.870 1344.548 C 744.448 1342.871, 749.736 1336.509, 754.620 1330.408 C 759.504 1324.307, 770.220 1311.257, 778.433 1301.408 C 786.647 1291.559, 796.339 1279.900, 799.972 1275.500 C 803.605 1271.100, 809.935 1263.475, 814.039 1258.555 C 818.142 1253.636, 822.479 1248.307, 823.675 1246.713 C 824.871 1245.119, 827.366 1242.169, 829.218 1240.158 C 831.071 1238.146, 838.397 1229.300, 845.498 1220.500 C 852.598 1211.700, 860.642 1201.800, 863.372 1198.500 C 870.868 1189.439, 873.324 1183.301, 873.815 1172.399 C 874.158 1164.803, 873.887 1162.532, 872.176 1158.666 C 868.941 1151.353, 865.243 1147.267, 859.150 1144.275 L 853.500 1141.500 761 1141.309 C 683.910 1141.150, 667.745 1141.353, 663.969 1142.526 M 452.500 1198.592 C 436.567 1202.351, 427.619 1206.815, 417.787 1215.909 C 407.234 1225.671, 400.393 1236.622, 395.866 1251 C 393.771 1257.654, 393.504 1260.418, 393.503 1275.500 C 393.502 1294.618, 394.556 1300.213, 400.554 1312.911 C 409.440 1331.724, 423.080 1344.403, 441.220 1350.711 C 451.104 1354.149, 468.113 1354.969, 479.915 1352.577 C 507.713 1346.945, 528.882 1323.781, 535.038 1292.258 C 536.836 1283.052, 535.769 1260.404, 533.122 1251.584 C 529.380 1239.116, 523.562 1228.892, 515.048 1219.823 C 506.243 1210.444, 499.543 1206.005, 487.665 1201.680 C 480.525 1199.080, 477.930 1198.670, 467 1198.413 C 460.125 1198.252, 453.600 1198.332, 452.500 1198.592"/>
</svg>