<?xml version='1.0' encoding='UTF-8'?>
<svg xmlns="http://www.w3.org/2000/svg" version="1.1" width="2816" height="1536">
<path d="M0 0 C2.304906 2.304906 2.40294246 3.16939413 2.92626953 6.30566406 C3.08079086 7.20531387 3.23531219 8.10496368 3.39451599 9.03187561 C3.55565384 10.01651291 3.71679169 11.00115021 3.8828125 12.015625 C4.24498494 14.13762261 4.60721051 16.25961116 4.96948242 18.3815918 C5.15771576 19.50205902 5.3459491 20.62252625 5.53988647 21.77694702 C12.09654776 60.69526121 19.43431941 99.51746049 32 137 C32.28488281 137.86641113 32.56976562 138.73282227 32.86328125 139.62548828 C44.12369405 173.81163877 61.02228529 204.00319206 94 221 C96.65628045 222.16115183 99.23678771 223.11577207 102 224 C102.24167458 230.40437649 102.33048501 236.95240776 100 243 C97.16436254 245.93561414 93.94801109 247.75859184 90.375 249.6875 C89.4778125 250.21021484 88.580625 250.73292969 87.65625 251.27148438 C85.45406095 252.54828548 83.23842745 253.78823652 81 255 C81.82407349 254.82609741 81.82407349 254.82609741 82.66479492 254.64868164 C85.17230658 254.11968524 87.67990246 253.59108912 90.1875 253.0625 C91.05181641 252.88009766 91.91613281 252.69769531 92.80664062 252.50976562 C93.64775391 252.33251953 94.48886719 252.15527344 95.35546875 251.97265625 C96.12528076 251.81031494 96.89509277 251.64797363 97.68823242 251.48071289 C100.12303397 250.97441611 102.56083812 250.48481408 105 250 C105.28198242 249.11852295 105.56396484 248.2370459 105.85449219 247.32885742 C106.91885711 244.00522324 107.98516968 240.6822263 109.05273438 237.35961914 C109.51117784 235.93147784 109.96888183 234.50309892 110.42578125 233.07446289 C112.57840108 226.34516559 114.73118878 219.62642129 117.1875 213 C118.80064247 208.6439433 120.0941996 204.31186586 121.25 199.8125 C121.50910156 198.81379883 121.50910156 198.81379883 121.7734375 197.79492188 C122.18706911 196.19784429 122.59428842 194.59910789 123 193 C123.66 193 124.32 193 125 193 C126.41927532 197.2282956 127.83492383 201.45779741 129.25 205.6875 C129.64574219 206.86634766 130.04148437 208.04519531 130.44921875 209.25976562 C137.81206877 231.28796446 137.81206877 231.28796446 138.82421875 237.77734375 C139.68868882 242.42427409 140.60791337 246.5390828 144 250 C151.71732316 253.79286139 160.54376889 254.91974228 169 256 C168.50072998 255.67725098 168.00145996 255.35450195 167.48706055 255.02197266 C165.22039898 253.55653366 162.95394734 252.09077031 160.6875 250.625 C159.90181641 250.11710938 159.11613281 249.60921875 158.30664062 249.0859375 C157.1706543 248.35117187 157.1706543 248.35117187 156.01171875 247.6015625 C155.31522217 247.15119629 154.61872559 246.70083008 153.90112305 246.23681641 C149.01763331 243.05975733 149.01763331 243.05975733 148.015625 239.6640625 C147.74739217 238.32024258 147.49265888 236.9736725 147.25 235.625 C147.11207031 234.95210937 146.97414063 234.27921875 146.83203125 233.5859375 C146.16532214 230.09430629 145.68876581 227.3388626 147 224 C149.62383849 222.57750897 152.13426258 221.39548694 154.875 220.25 C172.69573861 212.29176359 185.81084323 199.54293934 196 183 C196.36689941 182.40767578 196.73379883 181.81535156 197.11181641 181.20507812 C214.0241593 153.49434724 223.43484131 121.56452999 230 90 C230.48212934 87.75630745 230.96522013 85.51282131 231.44921875 83.26953125 C235.57018274 63.9560733 239.100188 44.53437656 242.61859131 25.10418701 C243.18739462 21.96616588 243.75971564 18.82878843 244.33203125 15.69140625 C245.22477741 10.79488602 246.11400328 5.89774584 247 1 C247.66 1 248.32 1 249 1 C249.09361889 27.84346544 249.1640651 54.68690626 249.20724869 81.53050232 C249.22783634 93.99565096 249.25588416 106.4606979 249.30175781 118.92578125 C249.34174201 129.7957647 249.36746038 140.66567446 249.37635398 151.53572941 C249.38154913 157.28643483 249.39368005 163.03692953 249.42292023 168.78756714 C249.45027256 174.21138141 249.45840527 179.63490015 249.45243073 185.05877686 C249.45352216 187.0387432 249.46135697 189.01872046 249.4768219 190.99862671 C249.56554195 202.95357234 248.55616734 213.55417907 245 225 C248.96 224.67 252.92 224.34 257 224 C260.53727667 208.70692298 263.85115542 193.37770144 267 178 C268.5938944 180.87330015 269.34897372 183.27755919 269.76196289 186.53051758 C269.87870865 187.42277542 269.99545441 188.31503326 270.11573792 189.23432922 C270.23352097 190.19469589 270.35130402 191.15506256 270.47265625 192.14453125 C270.60063095 193.14651047 270.72860565 194.14848969 270.86045837 195.18083191 C271.13028189 197.30622953 271.39651171 199.43208599 271.65942383 201.55834961 C272.05641751 204.76339429 272.46569767 207.96667962 272.87695312 211.16992188 C274.00332481 220.0402015 275.10996008 228.92069923 275.859375 237.83203125 C275.95831055 238.97260986 276.05724609 240.11318848 276.15917969 241.28833008 C276 244 276 244 274.80175781 245.69018555 C273.23459228 246.84043574 271.6174945 247.92167034 270 249 C268.15001154 254.62251396 267.91875423 259.65650855 267.96484375 265.5625 C268.0834757 287.08326172 268.0834757 287.08326172 264.40673828 292.23046875 C260.44709421 295.41785926 255.8873374 296.88911777 251.06152344 298.31054688 C241.23386613 301.59729536 232.17857812 313.48295155 226.72265625 321.9921875 C224.45155519 328.30216557 225.07916326 335.50020688 227.35546875 341.6796875 C229.10711646 345.21391709 230.98747475 348.60814883 233 352 C233.57105469 353.01191406 234.14210938 354.02382813 234.73046875 355.06640625 C237.12089813 359.77048892 237.12089813 359.77048892 241 363 C241.226875 362.23300781 241.45375 361.46601563 241.6875 360.67578125 C243.46926555 355.68577715 245.72224063 350.96754073 248 346.1875 C248.45117188 345.22134766 248.90234375 344.25519531 249.3671875 343.25976562 C249.80289063 342.34259766 250.23859375 341.42542969 250.6875 340.48046875 C251.08324219 339.64410889 251.47898437 338.80774902 251.88671875 337.94604492 C253 336 253 336 255 335 C255 366.02 255 397.04 255 429 C250 428 250 428 247 427 C245.48233461 426.88367271 243.9595654 426.82503761 242.4375 426.8125 C241.65246094 426.79832031 240.86742187 426.78414062 240.05859375 426.76953125 C237.7756455 426.80832491 237.7756455 426.80832491 236 429 C236.26367561 432.31511863 236.26367561 432.31511863 237 436 C237.28339233 437.65612305 237.28339233 437.65612305 237.57250977 439.34570312 C237.77674561 440.47943359 237.98098145 441.61316406 238.19140625 442.78125 C238.41376953 444.03550781 238.63613281 445.28976562 238.86523438 446.58203125 C239.33019853 449.194687 239.79895149 451.8066713 240.27148438 454.41796875 C240.49255859 455.67222656 240.71363281 456.92648437 240.94140625 458.21875 C241.14451416 459.35248047 241.34762207 460.48621094 241.55688477 461.65429688 C242.01869078 465.14112313 242.07555963 468.48689546 242 472 C237.70402861 470.35009794 234.99482354 467.18257193 231.875 463.9375 C228.30446634 459.9955106 228.30446634 459.9955106 224 457 C224.08396782 458.09158165 224.08396782 458.09158165 224.16963196 459.20521545 C224.3416474 461.44141618 224.51365936 463.67761718 224.68566895 465.91381836 C224.89055951 468.57731311 225.09547158 471.2408062 225.30041504 473.90429688 C225.81030481 480.53134323 226.31997742 487.15840599 226.82866955 493.7855444 C227.11481311 497.51328983 227.40111464 501.24102313 227.6875 504.96875 C227.74426218 505.70763018 227.80102436 506.44651035 227.85950661 507.20778084 C228.56431692 516.37879497 229.27632697 525.54920215 230 534.71875 C230.20737832 537.35992245 230.41455828 540.00111038 230.62167358 542.64230347 C230.74768547 544.24047601 230.87480005 545.83856204 231.00308228 547.43655396 C232.17275429 562.00799722 232.17275429 562.00799722 232 569 C228.71010914 570.17171756 225.41780898 571.33651088 222.125 572.5 C220.71927734 573.00080078 220.71927734 573.00080078 219.28515625 573.51171875 C218.38925781 573.82753906 217.49335937 574.14335938 216.5703125 574.46875 C215.74289551 574.76201172 214.91547852 575.05527344 214.06298828 575.35742188 C212 576 212 576 210 576 C209.17185017 566.49258292 208.3455022 556.98501098 207.52100086 547.4772768 C207.13740291 543.05436456 206.75335198 538.63149305 206.36791992 534.20874023 C203.45846542 500.81560657 200.71836004 467.40912958 198 434 C198.00222061 434.76991744 198.00444122 435.53983488 198.00672913 436.33308315 C198.05806961 455.08804997 198.06516875 473.8425593 198.02334595 492.59755611 C198.0041814 501.66748964 197.99985641 510.73697223 198.03076172 519.80688477 C198.0576687 527.71453421 198.05643101 535.62159944 198.02174091 543.52922732 C198.0043544 547.71446543 198.00082823 551.89865746 198.03103638 556.08384514 C198.05906185 560.02835135 198.04927736 563.97100764 198.01126289 567.9154129 C198.00388223 569.35809259 198.00997704 570.80091841 198.03101921 572.24346352 C198.12824502 579.42644146 198.03559026 584.64699286 193.1796875 590.21925354 C191.82532164 591.52117816 190.43282093 592.78495317 189 594 C188.3090625 594.60729918 187.618125 595.21459837 186.90625 595.84030056 C185.77074362 596.81863657 184.6183653 597.77795132 183.4453125 598.7109375 C181.73057554 600.13141981 181.73057554 600.13141981 180 603 C180.82612793 602.5059668 181.65225586 602.01193359 182.50341797 601.50292969 C185.61157827 599.64683617 188.72536831 597.80036654 191.84082031 595.95654297 C193.18055609 595.16189892 194.51881492 594.36475868 195.85546875 593.56494141 C203.35021717 589.08267794 210.70658061 584.85288187 219 582 C219.88655273 581.68579102 220.77310547 581.37158203 221.68652344 581.04785156 C224.42918482 580.09057116 227.18069224 579.16566103 229.9375 578.25 C230.86884766 577.93417969 231.80019531 577.61835937 232.75976562 577.29296875 C233.65244141 576.99519531 234.54511719 576.69742188 235.46484375 576.390625 C236.66548462 575.9889209 236.66548462 575.9889209 237.89038086 575.57910156 C240 575 240 575 243 575 C243 558.5 243 542 243 525 C257.6592035 539.6592035 256.94849705 565.80843902 257.79931641 584.95776367 C257.99286105 589.1629331 258.36850129 593.34009395 258.77514648 597.52954102 C260.80573573 619.83956554 260.80573573 619.83956554 255.625 627.0625 C254.42788404 628.38523923 253.22080731 629.69909447 252 631 C249.44410573 634.69002098 249.73662152 638.55134081 249.8125 642.875 C249.81967041 643.65149902 249.82684082 644.42799805 249.83422852 645.22802734 C249.92037502 651.69731083 250.15958522 658.1614339 250.4375 664.625 C250.47657471 665.53620605 250.51564941 666.44741211 250.5559082 667.38623047 C250.77416493 671.92079558 251.16269606 676.3566694 251.77026367 680.85888672 C252.26504773 685.47021105 252.30003891 690.11700012 252.4375 694.75 C252.79786396 705.44792332 253.45762634 716.09899664 254.26708984 726.77148438 C254.89345307 735.14336354 255.35514364 743.50961427 255.65820312 751.89941406 C255.68978516 752.72151367 255.72136719 753.54361328 255.75390625 754.390625 C255.77783447 755.09219727 255.8017627 755.79376953 255.82641602 756.51660156 C255.97024277 758.57427493 256.21742609 760.62442277 256.49107361 762.66888428 C257.00153651 766.70746024 257.20150048 770.71030259 257.31640625 774.78125 C257.33718735 775.48020386 257.35796844 776.17915771 257.37937927 776.89929199 C257.44398535 779.09944259 257.50333909 781.29969696 257.5625 783.5 C257.60577017 785.00521842 257.64938693 786.51042693 257.69335938 788.015625 C257.79957319 791.67697744 257.90108196 795.33844234 258 799 C257.08926224 798.97255707 256.17852448 798.94511414 255.2401886 798.9168396 C246.60572387 798.67294849 237.97498407 798.51758298 229.33720112 798.45853233 C224.89689294 798.42513566 220.46237141 798.35904264 216.02416992 798.21484375 C197.46783464 796.81299584 197.46783464 796.81299584 180.16741943 801.73352051 C175.88368772 805.80164334 173.39243779 810.40421852 171.07151794 815.77700806 C168.10599626 821.92933696 163.46377197 825.75261117 157.59765625 829.0859375 C157.00347397 829.42875763 156.40929169 829.77157776 155.79710388 830.12478638 C153.89228267 831.22044027 151.97769939 832.2976105 150.0625 833.375 C148.73095949 834.13725633 147.40023377 834.90093768 146.0703125 835.66601562 C143.49403546 837.14690806 140.91475883 838.62230396 138.33251953 840.09277344 C134.68824211 842.17842144 131.08784503 844.31906917 127.5 846.5 C122.62145396 849.45089498 117.70962284 852.33615988 112.765625 855.17578125 C111.4379044 855.94358406 110.11043626 856.71182361 108.78320312 857.48046875 C106.77808007 858.64169949 104.77163795 859.80014304 102.75952148 860.94921875 C100.87166279 862.02758975 98.99010137 863.11628149 97.109375 864.20703125 C96.00561523 864.8410083 94.90185547 865.47498535 93.76464844 866.12817383 C88.26956515 869.8486616 87.00946482 874.35372579 85.1171875 880.44921875 C84.85745148 881.26244095 84.59771545 882.07566315 84.33010864 882.91352844 C83.50438069 885.50258242 82.68914628 888.09478312 81.875 890.6875 C81.05208135 893.29037008 80.22696164 895.89250558 79.39846802 898.49360657 C78.8839997 900.11061178 78.37306204 901.72874524 77.86593628 903.34806824 C76.11115791 908.88884209 76.11115791 908.88884209 75 910 C73.14630389 910.08737645 71.28932459 910.10698153 69.43359375 910.09765625 C68.30888672 910.09443359 67.18417969 910.09121094 66.02539062 910.08789062 C64.84138672 910.07951172 63.65738281 910.07113281 62.4375 910.0625 C61.24962891 910.05798828 60.06175781 910.05347656 58.83789062 910.04882812 C55.89187774 910.03699675 52.94596319 910.02051287 50 910 C49.9453178 899.68936703 50.05745724 889.39659022 50.37231445 879.09057617 C50.43758097 876.93482557 50.49731678 874.77896829 50.55664062 872.62304688 C50.59862692 871.19530272 50.64093392 869.76756794 50.68359375 868.33984375 C50.72025146 867.09581787 50.75690918 865.85179199 50.79467773 864.57006836 C50.9427363 860.67917392 51.21577394 856.80074647 51.48852539 852.91674805 C52.00945617 845.27732737 52.28832433 837.64564609 52.5 829.9921875 C52.54068633 828.60986372 52.58170971 827.22754983 52.62304688 825.84524536 C52.77347142 820.79236909 52.91820753 815.73933388 53.0625 810.6862793 C53.18542999 806.38709107 53.31090443 802.08799148 53.43969727 797.78897476 C53.49806025 795.80802622 53.55280332 793.82697206 53.60742188 791.84591675 C53.81593241 784.8540122 54.18053539 777.90455301 54.77822876 770.93467712 C55.18688605 765.52695523 55.25116642 760.10782137 55.375 754.6875 C55.81145578 737.93085421 56.56912311 721.18739025 57.34009552 704.44351578 C57.43625216 702.33980021 57.53041926 700.23600489 57.6239624 698.13217163 C58.35666397 681.70409976 59.36696818 665.36566516 61 649 C82.78 648.01 82.78 648.01 105 647 C100.854375 646.4225 96.70875 645.845 92.4375 645.25 C79.5730919 643.43445547 66.7848501 641.30213193 54 639 C53.95609131 640.03664795 53.91218262 641.0732959 53.86694336 642.14135742 C53.07612941 660.01419485 51.97402728 677.86987181 50.89819336 695.72729492 C50.6743043 699.44528413 50.4523361 703.16337983 50.23217773 706.8815918 C48.09555963 742.95751128 48.09555963 742.95751128 46.66227722 759.27046204 C45.89486281 768.0049602 45.35914531 776.74586243 44.875 785.5 C44.78804797 787.02866222 44.70080814 788.55730809 44.61328125 790.0859375 C44.40558148 793.72377864 44.20161711 797.36181602 44 801 C43.34 801 42.68 801 42 801 C40.61767557 799.37373596 39.28062485 797.7074998 38 796 C37.94465088 797.06847168 37.88930176 798.13694336 37.83227539 799.23779297 C37.62406156 803.24491947 37.41269883 807.25187499 37.20043945 811.25878906 C37.10942612 812.98498175 37.01923909 814.71121822 36.92993164 816.4375 C36.07652908 832.91436724 36.07652908 832.91436724 35.2121582 840.75732422 C34.7917253 845.20162421 34.70808882 849.66485688 34.5625 854.125 C34.21388402 863.59154887 33.56862664 873.00075125 32.73510742 882.43603516 C31.98512701 890.94997715 31.44066674 899.46498099 31 908 C30.34104736 907.9779248 29.68209473 907.95584961 29.00317383 907.93310547 C12.52328951 907.13442929 12.52328951 907.13442929 -1.375 914.68286133 C-2.35609971 915.64599399 -3.33588722 916.61046491 -4.31445312 917.57617188 C-6.83312337 919.70376238 -9.66423328 921.06117572 -12.62792969 922.47753906 C-19.56588597 926.66046191 -19.56588597 926.66046191 -23.79367065 933.29272461 C-24.19340924 936.06403031 -24.33910277 938.75536594 -24.41015625 941.5546875 C-24.46689514 942.62557114 -24.52363403 943.69645477 -24.58209229 944.79978943 C-24.76505323 948.53265281 -24.88576076 952.26441979 -25 956 C-25.05066914 957.43675076 -25.10232469 958.87346702 -25.15487671 960.31015015 C-25.44380273 968.24309806 -25.70294082 976.17695042 -25.94921875 984.11132812 C-25.98747284 985.33402169 -25.98747284 985.33402169 -26.02649975 986.58141613 C-26.15573983 990.77189184 -26.27423679 994.96231461 -26.37548828 999.15356445 C-26.47624805 1003.28772826 -26.60499942 1007.42021174 -26.75206757 1011.55297661 C-26.80218692 1013.10628074 -26.84213296 1014.65995144 -26.87116241 1016.2137928 C-27.03982053 1025.00221772 -27.3929727 1031.63175443 -34 1038 C-34.62680664 1038.72678955 -35.25361328 1039.4535791 -35.89941406 1040.20239258 C-36.43276367 1040.76079834 -36.96611328 1041.3192041 -37.515625 1041.89453125 C-38.12212891 1042.53430908 -38.72863281 1043.17408691 -39.35351562 1043.83325195 C-39.97935547 1044.48640381 -40.60519531 1045.13955566 -41.25 1045.8125 C-42.57849342 1047.21840196 -43.90661759 1048.62465293 -45.234375 1050.03125 C-47.00419537 1051.89870339 -48.77527502 1053.76481612 -50.55273438 1055.625 C-63.8933273 1069.61680736 -68.63017434 1082.61609102 -72.6875 1101.0625 C-73.01063565 1102.51507014 -73.33420004 1103.96754497 -73.65820312 1105.41992188 C-74.44374601 1108.94552997 -75.22348626 1112.47239082 -76 1116 C-74.28069194 1112.71871913 -72.91700229 1109.35742341 -71.57421875 1105.90625 C-70.87329102 1104.111875 -70.87329102 1104.111875 -70.15820312 1102.28125 C-69.66779549 1101.02090074 -69.1775618 1099.76048378 -68.6875 1098.5 C-66.80395844 1093.6617327 -64.90814182 1088.82861715 -63 1084 C-62.56341064 1082.8773877 -62.12682129 1081.75477539 -61.67700195 1080.59814453 C-59.60300714 1075.40140288 -57.7945413 1070.92428027 -53.8125 1066.875 C-53.03390625 1066.070625 -52.2553125 1065.26625 -51.453125 1064.4375 C-50.64359375 1063.633125 -49.8340625 1062.82875 -49 1062 C-48.19046875 1061.154375 -47.3809375 1060.30875 -46.546875 1059.4375 C-41.74220723 1054.48174205 -36.78667979 1050.07749066 -31.2265625 1045.984375 C-24.69344099 1040.16187373 -23.93520903 1033.84467698 -22.75 1025.5625 C-22.55237061 1024.26368896 -22.35474121 1022.96487793 -22.15112305 1021.62670898 C-21.55639076 1017.70395078 -20.98452726 1013.77808112 -20.41522217 1009.8515625 C-19.95724224 1006.70635858 -19.49304255 1003.56211121 -19.02783203 1000.41796875 C-17.42514205 989.58443608 -15.82941645 978.74982038 -14.26318359 967.91094971 C-13.93744855 965.66282214 -13.60761931 963.41528349 -13.2734375 961.168396 C-12.58264319 956.45556623 -11.93990746 951.77739384 -11.61230469 947.02416992 C-10.9050397 937.23579559 -10.9050397 937.23579559 -8.32055664 933.70678711 C-6.18141512 931.87940109 -4.09030185 930.53686372 -1.625 929.1875 C-0.85671875 928.71248047 -0.0884375 928.23746094 0.703125 927.74804688 C2.12628534 926.87026719 3.56296748 926.01370844 5.01708984 925.18823242 C7.04636705 924.05509607 7.04636705 924.05509607 8.75131226 922.44702148 C11.65995498 920.57532163 13.51790775 920.63771791 16.96191406 920.65942383 C18.16285706 920.65965042 19.36380005 920.65987701 20.60113525 920.66011047 C22.53880768 920.68333626 22.53880768 920.68333626 24.515625 920.70703125 C25.85511805 920.71262948 27.19461726 920.71689851 28.53411865 920.71989441 C32.05237921 920.73132546 35.57026571 920.76077706 39.08837891 920.79400635 C42.68126364 920.82474511 46.27420906 920.83840784 49.8671875 920.85351562 C56.91161096 920.88564887 63.955781 920.93682379 71 921 C71.03281004 925.41500091 71.02664973 929.73421162 70.5625 934.12890625 C70.47226563 935.01900391 70.38203125 935.90910156 70.2890625 936.82617188 C70.19367188 937.72916016 70.09828125 938.63214844 70 939.5625 C69.38547328 945.404656 68.87100362 951.12260241 69 957 C69.40347656 955.91332031 69.80695313 954.82664062 70.22265625 953.70703125 C75.29114652 940.18000217 80.66490636 926.78142351 86.14111328 913.4152832 C89.05940465 906.28656789 91.96264278 899.15777002 94.70671082 891.95979309 C95.83550819 889.0011695 96.98247027 886.04973682 98.13052368 883.09854126 C98.6624012 881.7153942 99.18508565 880.32867173 99.69784546 878.93832397 C104.46446112 866.02766463 104.46446112 866.02766463 110.75170898 862.95654297 C111.86461304 862.4830542 111.86461304 862.4830542 113 862 C114.72082172 861.12781893 116.4408173 860.25400669 118.16015625 859.37890625 C120.1252598 858.43520677 122.09285632 857.4966865 124.0625 856.5625 C125.12944092 856.0480835 126.19638184 855.53366699 127.2956543 855.00366211 C133.51012173 852.03334526 139.75910376 849.22610335 146.109375 846.5625 C167.57976044 837.64315523 167.57976044 837.64315523 182.55067444 820.29696655 C187.46330912 812.83380338 187.46330912 812.83380338 191.87893677 811.38239861 C197.41342538 810.43617545 203.01007378 810.73818081 208.59765625 810.92578125 C210.40078463 810.94632555 212.20397488 810.96197045 214.00718689 810.97294617 C218.72871681 811.01473255 223.4464596 811.12257845 228.16650391 811.24468994 C232.99264291 811.3576945 237.81940067 811.40755625 242.64648438 811.46289062 C252.09931054 811.58048133 261.54933909 811.76794195 271 812 C270.96970703 810.88778076 270.93941406 809.77556152 270.90820312 808.62963867 C270.79381352 804.40444452 270.68283283 800.17916589 270.57275391 795.95385742 C270.52514531 794.14361233 270.47667691 792.33338961 270.42724609 790.52319336 C270.08638139 778.01206762 269.93550904 765.51572539 270 753 C270.74856766 753.45124741 271.49713531 753.90249481 272.26838684 754.36741638 C273.80944098 755.28844714 275.35520748 756.20200047 276.91581726 757.0894928 C288.85016884 763.96907285 288.85016884 763.96907285 291.37353516 770.62060547 C291.7878006 774.17870007 291.95854292 777.52943832 291.86990356 781.10079956 C291.81064441 783.51303453 291.843269 785.91025607 291.89624023 788.32250977 C291.96448624 791.89932818 291.9927439 795.47331407 291.99023438 799.05078125 C291.99107316 809.03562658 292.20010438 819.01417125 292.48178101 828.99465942 C292.56090437 832.3694431 292.58399205 835.74136098 292.6027832 839.11694336 C292.83092015 852.53145949 294.68082208 861.38102609 303 872 C303.55163818 872.7727124 304.10327637 873.5454248 304.67163086 874.34155273 C305.95536813 876.11688652 307.29280751 877.81135413 308.6875 879.5 C309.14737305 880.07911133 309.60724609 880.65822266 310.08105469 881.25488281 C312.4896941 884.26525712 315.01769706 887.03671541 317.75 889.75 C321.31769422 894.9033361 319.55335291 899.8309548 318.51364136 905.78536987 C317.94248695 908.77869472 317.33388289 911.76231486 316.71484375 914.74609375 C316.26204626 916.98756488 315.80958249 919.22910344 315.35742188 921.47070312 C314.64837657 924.95800833 313.93604364 928.44456452 313.2175293 931.92993164 C312.5197181 935.32514818 311.83524322 938.72285107 311.15234375 942.12109375 C310.82894264 943.66222084 310.82894264 943.66222084 310.49900818 945.23448181 C308.70721334 954.22121306 308.58863479 962.74654096 309.62109375 971.84765625 C309.81735352 973.62172852 309.81735352 973.62172852 310.01757812 975.43164062 C310.15615234 976.62982422 310.29472656 977.82800781 310.4375 979.0625 C310.7072974 981.47002227 310.97683331 983.87757386 311.24609375 986.28515625 C311.36654053 987.33582275 311.4869873 988.38648926 311.61108398 989.46899414 C312.10751049 993.97609804 312.55545291 998.48752422 313 1003 C301.27171264 1004.64446555 289.54325709 1006.28772596 277.81459713 1007.92953205 C272.36598276 1008.692279 266.91742281 1009.45541003 261.46899414 1010.21948242 C256.19116453 1010.95961499 250.91318299 1011.69865569 245.63510323 1012.43700218 C243.64168639 1012.71604306 241.64832062 1012.99544903 239.65501213 1013.27526283 C225.44748069 1015.26931741 211.22940464 1017.16849523 197 1019 C197.62339232 1018.99317042 198.24678465 1018.98634085 198.88906765 1018.97930431 C214.13358885 1018.81683245 229.37668672 1018.72760882 244.62197018 1018.71759319 C251.99501614 1018.7110254 259.36645931 1018.68064464 266.73901367 1018.59204102 C273.17322223 1018.51477726 279.60575207 1018.48439537 286.04040915 1018.50781661 C289.44107649 1018.51862286 292.83820259 1018.50765663 296.2382946 1018.44031334 C311.72251847 1018.18170949 323.13931748 1018.6753241 334.90260315 1029.52497864 C338.81146831 1033.62459048 342.51107456 1038.35577744 342.48242188 1044.26367188 C342.48922974 1045.02135864 342.4960376 1045.77904541 342.50305176 1046.55969238 C342.49173218 1047.3546814 342.4804126 1048.14967041 342.46875 1048.96875 C342.47932434 1050.22745911 342.47932434 1050.22745911 342.4901123 1051.51159668 C342.51942094 1055.07251348 342.50298631 1058.6328711 342.49072266 1062.19384766 C342.48833305 1064.80664276 342.50930098 1067.41856381 342.53125 1070.03125 C342.51993042 1070.82623901 342.50861084 1071.62122803 342.49694824 1072.44030762 C342.54756055 1078.07324815 343.86006607 1081.31655048 347 1086 C347.89145859 1077.23579364 348.30748523 1068.49881587 348.60546875 1059.69726562 C348.66154297 1058.18616211 348.66154297 1058.18616211 348.71875 1056.64453125 C348.76418945 1055.30418823 348.76418945 1055.30418823 348.81054688 1053.93676758 C349.00154137 1050.97610684 349.37051004 1048.060142 349.75375366 1045.1191864 C350.17006164 1041.53645612 350.34894613 1037.94460619 350.53515625 1034.34375 C350.57813339 1033.55601196 350.62111053 1032.76827393 350.66539001 1031.95666504 C350.80039008 1029.47124362 350.93151201 1026.98563576 351.0625 1024.5 C351.1540392 1022.80206942 351.2458337 1021.10415259 351.33789062 1019.40625 C351.56154306 1015.27098622 351.7817207 1011.13555074 352 1007 C351.278125 1006.7525 350.55625 1006.505 349.8125 1006.25 C346.50997378 1004.78221057 344.42607972 1003.71635204 342 1001 C341.45611808 997.9245639 341.77306739 994.98148773 342.06640625 991.88671875 C342.13243546 990.96863937 342.19846466 990.05056 342.26649475 989.10466003 C342.41259845 987.11300305 342.57043956 985.12218039 342.73858643 983.13226318 C343.00288478 979.96543444 343.22888465 976.79791192 343.44482422 973.62744141 C343.82348058 968.13674414 344.24021011 962.64988318 344.67456055 957.16333008 C344.94234256 953.75078774 345.19672549 950.33738773 345.45117188 946.92382812 C345.62158121 944.7473319 345.79277417 942.57089685 345.96484375 940.39453125 C346.03887924 939.377043 346.11291473 938.35955475 346.18919373 937.31123352 C346.30425011 935.911576 346.30425011 935.911576 346.42163086 934.48364258 C346.485233 933.66317947 346.54883514 932.84271637 346.61436462 931.99739075 C347 930 347 930 349 928 C359 958.96666667 359 958.96666667 359 964 C360.98 963.67 362.96 963.34 365 963 C365.0424585 962.25661377 365.08491699 961.51322754 365.12866211 960.74731445 C365.74261832 951.45421766 367.07117503 942.3689558 368.5625 933.1875 C368.79930526 931.70515427 369.03563608 930.22273267 369.27148438 928.74023438 C369.84220973 925.15926818 370.41927782 921.57936034 371 918 C371.66 918 372.32 918 373 918 C373.07659348 918.54679413 373.15318695 919.09358826 373.23210144 919.6569519 C374.03254746 925.3385289 374.86489126 931.01477047 375.71606445 936.68896484 C376.0296469 938.80820408 376.33502727 940.92867365 376.63208008 943.05029297 C377.06010351 946.09702216 377.51727605 949.13813249 377.98046875 952.1796875 C378.17143379 953.60787308 378.17143379 953.60787308 378.36625671 955.06491089 C378.75154146 957.492828 379.12493649 959.70259135 380 962 C382.46066248 963.74111812 382.46066248 963.74111812 385 964 C385.08636719 963.46375 385.17273437 962.9275 385.26171875 962.375 C387.24848397 951.29286008 390.86197752 940.45395152 395 930 C395.33 930 395.66 930 396 930 C397.75737021 946.13088798 399.33372309 962.26797048 400.6875 978.4375 C400.75393707 979.22153198 400.82037415 980.00556396 400.88882446 980.81335449 C401.07861061 983.06153138 401.26463391 985.30998444 401.44921875 987.55859375 C401.55580811 988.85079834 401.66239746 990.14300293 401.7722168 991.47436523 C402.18696259 997.8938122 402.18696259 997.8938122 402 1001 C400.03125 1002.30078125 400.03125 1002.30078125 397.5 1003.3125 C395.00371859 1004.71605186 395.00371859 1004.71605186 393 1007 C392.3900711 1010.19112449 392.3900711 1010.19112449 392.625 1013.94140625 C392.65128479 1015.03435501 392.65128479 1015.03435501 392.67810059 1016.14938354 C392.75426739 1018.76833184 392.8737963 1021.38298847 393 1024 C393.04713135 1025.03657745 393.0942627 1026.07315491 393.14282227 1027.1411438 C393.53863716 1035.63900779 394.01390305 1044.13189676 394.5 1052.625 C396.28101295 1083.83057812 396.28101295 1083.83057812 396 1096 C396.84820313 1095.83628906 397.69640625 1095.67257812 398.5703125 1095.50390625 C402.0645531 1094.99051555 405.34627574 1094.90149261 408.875 1094.9375 C410.02742188 1094.94652344 411.17984375 1094.95554687 412.3671875 1094.96484375 C413.23601563 1094.97644531 414.10484375 1094.98804688 415 1095 C416.17787134 1102.60561286 417.35168582 1110.21184248 418.52036285 1117.81887341 C419.06318633 1121.35131988 419.60739081 1124.88354191 420.15478516 1128.4152832 C420.78442151 1132.47804695 421.40798935 1136.54172199 422.03125 1140.60546875 C422.22811401 1141.8702153 422.42497803 1143.13496185 422.62780762 1144.43803406 C422.89808777 1146.20930412 422.89808777 1146.20930412 423.17382812 1148.01635742 C423.33371216 1149.05338303 423.49359619 1150.09040863 423.6583252 1151.15885925 C424 1154 424 1154 424 1159 C432.58 1159.33 441.16 1159.66 450 1160 C450 1158.68 450 1157.36 450 1156 C456.27 1156 462.54 1156 469 1156 C469 1157.32 469 1158.64 469 1160 C473.29 1160 477.58 1160 482 1160 C481.835 1158.164375 481.67 1156.32875 481.5 1154.4375 C481.5201304 1148.71375562 481.5201304 1148.71375562 483.39453125 1145.92578125 C485.49999525 1144.08618032 487.67104371 1142.5477931 490 1141 C491.95932467 1139.54299884 493.91763962 1138.08463896 495.875 1136.625 C500.67295597 1133.16352201 500.67295597 1133.16352201 503 1132 C503.18580346 1140.22343561 503.32772414 1148.44598693 503.41449738 1156.6710062 C503.45615692 1160.49081903 503.51260451 1164.30919056 503.60351562 1168.12817383 C503.69078902 1171.81766221 503.73834355 1175.50576957 503.75901794 1179.19621086 C503.77373939 1180.60014522 503.80249042 1182.0040084 503.84584045 1183.40735054 C504.17150544 1194.39219171 504.17150544 1194.39219171 501.2668457 1198.37863159 C499.26080172 1200.15060081 497.26533782 1201.58302505 495 1203 C494.05125 1203.804375 493.1025 1204.60875 492.125 1205.4375 C490 1207 490 1207 488 1207 C488.65658987 1231.28314877 490.28068134 1254.78361179 494.66455078 1278.69189453 C495 1281 495 1281 495 1285 C497.65306858 1286.07689131 500.29398958 1287.09926921 503.0078125 1288.015625 C506.41542163 1289.36500406 509.07037113 1290.7889356 512 1293 C513.07177734 1295.48168945 513.07177734 1295.48168945 513.5859375 1298.55078125 C513.80749512 1299.79714355 514.02905273 1301.04350586 514.25732422 1302.32763672 C514.50506403 1303.88506233 514.75260232 1305.44252 515 1307 C515.33807945 1308.99918752 515.67824444 1310.998023 516.02001953 1312.99658203 C517.41089782 1321.19122199 518.76312281 1329.39221102 520.09326172 1337.59692383 C520.66881327 1341.13758941 521.25547403 1344.67627325 521.84375 1348.21484375 C522.01571899 1349.29410629 522.18768799 1350.37336884 522.36486816 1351.4853363 C523.29622234 1357.03911672 524.16001471 1362.09379177 527 1367 C529.41500168 1368.75534264 529.41500168 1368.75534264 532.33984375 1369.74609375 C533.92623657 1370.40037354 533.92623657 1370.40037354 535.54467773 1371.06787109 C537.22412476 1371.7458374 537.22412476 1371.7458374 538.9375 1372.4375 C547.19594619 1376.0760615 553.72741633 1379.35334302 558.9375 1386.875 C559.63081421 1387.87527222 559.63081421 1387.87527222 560.33813477 1388.89575195 C562.50837859 1392.22185602 564.28128917 1395.56686081 565.87109375 1399.203125 C567.87316074 1403.35438057 569.66350433 1406.99939758 574 1409 C579.3579868 1409.34196116 584.61068213 1408.51736206 589.91351318 1407.79232788 C604.9806615 1405.82336488 615.13756042 1410.72923399 628.17041016 1418.36035156 C631.92285859 1420.5347643 635.78292274 1422.43089412 639.6875 1424.3125 C641.4594802 1425.20606266 643.23090556 1426.10073758 645 1427 C645 1427.33 645 1427.66 645 1428 C301.14 1428 -42.72 1428 -397 1428 C-394.42968841 1425.42968841 -392.34659975 1423.83532297 -389.30078125 1421.953125 C-388.34953369 1421.36225098 -387.39828613 1420.77137695 -386.41821289 1420.16259766 C-385.39332764 1419.53144043 -384.36844238 1418.9002832 -383.3125 1418.25 C-381.15099746 1416.90892541 -378.98954054 1415.5677773 -376.828125 1414.2265625 C-375.70986328 1413.5346582 -374.59160156 1412.84275391 -373.43945312 1412.12988281 C-367.80474516 1408.64278062 -362.18379265 1405.13367497 -356.5625 1401.625 C-355.5206958 1400.97692383 -354.4788916 1400.32884766 -353.40551758 1399.66113281 C-351.96921997 1398.76539551 -351.96921997 1398.76539551 -350.50390625 1397.8515625 C-349.65642822 1397.32385254 -348.8089502 1396.79614258 -347.93579102 1396.25244141 C-346.07382564 1395.14368401 -346.07382564 1395.14368401 -345 1394 C-342.40846893 1393.84003834 -339.8404798 1393.74061303 -337.24609375 1393.68359375 C-336.08292381 1393.6524221 -336.08292381 1393.6524221 -334.89625549 1393.62062073 C-332.41009692 1393.55504198 -329.92382955 1393.49620201 -327.4375 1393.4375 C-325.75584796 1393.39432267 -324.07420706 1393.35070864 -322.39257812 1393.30664062 C-318.26183129 1393.19935221 -314.13097464 1393.09810868 -310 1393 C-309.6282666 1392.27635254 -309.2565332 1391.55270508 -308.87353516 1390.80712891 C-296.22995707 1366.22520774 -296.22995707 1366.22520774 -289.75805664 1354.71484375 C-285.71916668 1347.53022473 -281.77975922 1340.29246553 -277.90844727 1333.01611328 C-275.35343967 1328.2333815 -272.75856752 1323.53914857 -269.83203125 1318.97265625 C-261.29470221 1305.381748 -259.91613767 1292.82439214 -259 1277 C-258.72633565 1273.2433349 -258.43659567 1269.48811083 -258.14672852 1265.73266602 C-257.8176007 1261.36292495 -257.52817229 1256.99090991 -257.24951172 1252.61767578 C-256.56966609 1245.48528356 -256.56966609 1245.48528356 -254.34521484 1243.59033203 C-253.64090332 1243.23310059 -252.9365918 1242.87586914 -252.2109375 1242.5078125 C-251.43363281 1242.11335938 -250.65632813 1241.71890625 -249.85546875 1241.3125 C-248.62763672 1240.7246875 -248.62763672 1240.7246875 -247.375 1240.125 C-246.57964844 1239.70992187 -245.78429688 1239.29484375 -244.96484375 1238.8671875 C-239.90089076 1236.37262938 -236.59602345 1235.26541661 -231 1237 C-227.41327636 1238.67738046 -223.99128765 1240.58520777 -220.5625 1242.5625 C-219.64017578 1243.08263672 -218.71785156 1243.60277344 -217.76757812 1244.13867188 C-215.50591012 1245.41598696 -213.25053176 1246.70319677 -211 1248 C-211.42490723 1247.34056396 -211.84981445 1246.68112793 -212.28759766 1246.00170898 C-213.43909949 1244.20698111 -214.5780607 1242.40419847 -215.7109375 1240.59765625 C-217.39379828 1237.92286533 -219.14369678 1235.30118127 -220.9140625 1232.68359375 C-226.66745018 1224.00253989 -230.76180684 1217.71644491 -229 1207 C-228.96712891 1205.329375 -228.96712891 1205.329375 -228.93359375 1203.625 C-228.74091989 1200.01748949 -228.40187607 1197.33611013 -227 1194 C-223.21844274 1190.71544741 -218.21129433 1187 -213 1187 C-212.94448975 1185.88149658 -212.88897949 1184.76299316 -212.83178711 1183.6105957 C-212.24726941 1172.05396405 -211.54892545 1160.50806067 -210.75268555 1148.96411133 C-210.56146149 1146.17233822 -210.37742913 1143.3801434 -210.19335938 1140.58789062 C-209.58818828 1131.6579305 -208.85624943 1122.83360169 -207.44970703 1113.98901367 C-206.22252316 1105.98450724 -206.22252316 1105.98450724 -207 1098 C-210.15786644 1093.7872718 -214.252696 1091.14101918 -218.61808777 1088.29034424 C-221 1086 -221 1086 -221.60127258 1083.08929443 C-221.59016953 1081.96122375 -221.57906647 1080.83315308 -221.56762695 1079.67089844 C-221.5672493 1078.38987244 -221.56687164 1077.10884644 -221.56648254 1075.78900146 C-221.54095112 1074.39578272 -221.51487117 1073.00257394 -221.48828125 1071.609375 C-221.47895167 1070.18020871 -221.47183624 1068.75102639 -221.46684265 1067.32183838 C-221.44778355 1063.56656472 -221.39869432 1059.81226343 -221.34332275 1056.05737305 C-221.29210548 1052.22327834 -221.26932346 1048.38902595 -221.24414062 1044.5546875 C-221.19057265 1037.03601581 -221.10527541 1029.51814433 -221 1022 C-220.08263817 1022.61821373 -220.08263817 1022.61821373 -219.14674377 1023.24891663 C-218.34107468 1023.78947189 -217.53540558 1024.33002716 -216.70532227 1024.88696289 C-215.50952293 1025.69080162 -215.50952293 1025.69080162 -214.28956604 1026.51087952 C-212.47967253 1027.68802376 -210.60618711 1028.76734288 -208.71484375 1029.80859375 C-205.58310653 1031.64535102 -203.33026577 1033.19599888 -201 1036 C-200.0657203 1041.17003094 -200.33155749 1045.81450658 -201 1051 C-196.71 1051 -192.42 1051 -188 1051 C-188 1048.03 -188 1045.06 -188 1042 C-182.39 1042 -176.78 1042 -171 1042 C-171 1044.97 -171 1047.94 -171 1051 C-166.05 1051 -161.1 1051 -156 1051 C-156.17402344 1049.74445313 -156.34804687 1048.48890625 -156.52734375 1047.1953125 C-157.7674934 1034.2954381 -157.7674934 1034.2954381 -154.57617188 1030.15087891 C-150.5087843 1026.62646783 -145.8260286 1024.31543886 -141 1022 C-140.01 1021.34 -139.02 1020.68 -138 1020 C-137.50457588 1017.19314959 -137.50457588 1017.19314959 -137.5234375 1013.8828125 C-137.4925 1012.635 -137.4615625 1011.3871875 -137.4296875 1010.1015625 C-137.41164063 1008.78929687 -137.39359375 1007.47703125 -137.375 1006.125 C-137.2142283 998.18287792 -137.00019397 990.30624964 -136.27636719 982.39453125 C-135.71314616 975.47666443 -135.41241521 968.54085774 -135.07006836 961.60913086 C-134.93757945 958.93910107 -134.80001853 956.26936405 -134.66210938 953.59960938 C-134.45053622 949.44716617 -134.26238724 945.29427205 -134.09246826 941.1399231 C-134.01007401 939.23313512 -133.90710179 937.32726166 -133.80126953 935.42163086 C-133.76501465 934.44460205 -133.72875977 933.46757324 -133.69140625 932.4609375 C-133.65345947 931.65833496 -133.6155127 930.85573242 -133.57641602 930.02880859 C-134.1766327 927.15399553 -135.64611993 926.33323618 -138 924.6875 C-140.81365847 922.56979946 -141.86100146 921.65527881 -142.6015625 918.1640625 C-142.62782334 914.40876249 -142.38513817 910.7305884 -142 907 C-141.93425781 906.2977832 -141.86851562 905.59556641 -141.80078125 904.87207031 C-141.50660748 901.73467929 -141.19705381 898.59972748 -140.85620117 895.46704102 C-139.8696302 886.32994174 -139.28399002 877.16999312 -138.69775391 867.99975586 C-138.30491198 861.96506156 -137.84179987 855.98944329 -137 850 C-135 851 -135 851 -133.88671875 854.03515625 C-133.47925973 855.37528135 -133.08009263 856.71794462 -132.6875 858.0625 C-132.25033497 859.51442382 -131.8128244 860.96624363 -131.375 862.41796875 C-131.15070313 863.16997559 -130.92640625 863.92198242 -130.6953125 864.69677734 C-130.00363507 866.98795881 -129.2880533 869.2701188 -128.5625 871.55078125 C-128.21699097 872.63830688 -128.21699097 872.63830688 -127.86450195 873.74780273 C-127.41904243 875.14747413 -126.9722999 876.54673795 -126.52416992 877.94555664 C-125 882.77710777 -125 882.77710777 -125 885 C-123.02 884.67 -121.04 884.34 -119 884 C-118.96261719 883.13761719 -118.92523437 882.27523437 -118.88671875 881.38671875 C-118.40100683 872.36771505 -117.24602984 863.6052616 -115.765625 854.69921875 C-114.67958382 848.15460494 -113.83610204 841.58061488 -113 835 C-109.95056546 838.04943454 -110.06406583 841.86984756 -109.4921875 845.98828125 C-109.36184113 846.88363083 -109.23149475 847.77898041 -109.09719849 848.70146179 C-108.82274619 850.59817959 -108.55233803 852.49548626 -108.28564453 854.39331055 C-107.8779412 857.29159158 -107.45766131 860.18782803 -107.03515625 863.08398438 C-106.77008725 864.92697618 -106.50574075 866.77007208 -106.2421875 868.61328125 C-106.11721893 869.47802567 -105.99225037 870.34277008 -105.86349487 871.23371887 C-105.31155341 875.18633273 -104.83756441 878.99683107 -105 883 C-103.35 883 -101.7 883 -100 883 C-99.66005005 881.88141602 -99.66005005 881.88141602 -99.31323242 880.74023438 C-98.27397094 877.32601006 -97.23076779 873.91300216 -96.1875 870.5 C-95.83107422 869.32695313 -95.47464844 868.15390625 -95.10742188 866.9453125 C-93.25073885 860.88128354 -91.31645781 854.90440981 -89 849 C-88.67 849 -88.34 849 -88 849 C-87.27757927 856.68135324 -86.56684642 864.3637273 -85.86376953 872.046875 C-85.62387027 874.65388767 -85.38141457 877.26066654 -85.13623047 879.8671875 C-84.34969852 888.23973985 -83.62933056 896.61413772 -83 905 C-82.9273291 905.90041016 -82.8546582 906.80082031 -82.77978516 907.72851562 C-82.61305296 909.96531971 -82.4964887 912.19650487 -82.40625 914.4375 C-82.31827148 916.16806641 -82.31827148 916.16806641 -82.22851562 917.93359375 C-83.11386158 921.45256374 -83.67644632 921.71957878 -86.48071289 923.75830078 C-88.76341084 925.53108635 -89.84110939 926.45832646 -90.66220093 929.25750732 C-90.90309542 932.00132477 -90.94352521 934.67557726 -90.90234375 937.4296875 C-90.91463516 938.42001984 -90.92692657 939.41035217 -90.93959045 940.43069458 C-90.97126766 943.57955476 -90.95505821 946.72606762 -90.9375 949.875 C-90.95061195 952.01564672 -90.96685326 954.15627671 -90.98632812 956.296875 C-91.02713667 961.53159922 -91.02868464 966.76521998 -91 972 C-90.14768799 971.79318604 -89.29537598 971.58637207 -88.41723633 971.37329102 C-85.23985663 970.60280078 -82.06226266 969.83320646 -78.88452148 969.06420898 C-77.51203933 968.73188298 -76.13964228 968.3992053 -74.76733398 968.06616211 C-72.78912538 967.58613978 -70.81060913 967.10740387 -68.83203125 966.62890625 C-67.64327393 966.34088135 -66.4545166 966.05285645 -65.22973633 965.75610352 C-62.49330799 965.1154868 -59.75683776 964.54310863 -57 964 C-56.96813347 963.04731987 -56.96813347 963.04731987 -56.93562317 962.07539368 C-56.70008217 955.40215416 -56.37699677 948.73706923 -56.00512695 942.07006836 C-55.877955 939.58932878 -55.77236912 937.10737684 -55.68969727 934.62475586 C-54.90339993 911.75775799 -54.90339993 911.75775799 -48.44816589 904.82817078 C-46.28057515 902.84802853 -44.00452202 901.07621336 -41.66383362 899.30752563 C-37.67159758 896.17022218 -34.55673839 893.41426932 -33.38026428 888.31254578 C-33.03446035 885.03902399 -32.88306319 881.80612336 -32.79296875 878.515625 C-32.73724197 877.30541687 -32.6815152 876.09520874 -32.62409973 874.84832764 C-32.45205265 870.98280542 -32.31900913 867.11709243 -32.1875 863.25 C-32.08138787 860.69650471 -31.97268832 858.14311555 -31.86132812 855.58984375 C-31.64879605 850.64367188 -31.45111244 845.6972847 -31.26635742 840.75 C-31.04681797 834.98057816 -30.76222551 829.21746309 -30.4375 823.453125 C-30.05104527 816.46641807 -29.81731941 809.49777611 -29.8125 802.5 C-29.80025391 801.53320312 -29.78800781 800.56640625 -29.77539062 799.5703125 C-29.75908719 791.46207175 -30.97985901 783.83982764 -33 776 C-32.01 776 -31.02 776 -30 776 C-29.99742187 775.36578125 -29.99484375 774.7315625 -29.9921875 774.078125 C-29.26383398 756.50052661 -21.85557597 740.43184258 -14 725 C-13.34 725 -12.68 725 -12 725 C-10.36973819 727.1422935 -8.86331155 729.2635504 -7.375 731.5 C-6.59502814 732.65981761 -5.81456048 733.8193019 -5.03369141 734.97851562 C-4.36257324 735.97560547 -3.69145508 736.97269531 -3 738 C-0.98151682 721.25893673 0.27928983 704.47439769 1.51098633 687.65991211 C1.68028405 685.35789417 1.84979671 683.05589202 2.01953125 680.75390625 C2.10161331 679.63614304 2.18369537 678.51837982 2.26826477 677.366745 C2.73161242 671.17818574 3.27461478 665.00877329 3.94921875 658.83984375 C5.87283426 643.47339303 5.87283426 643.47339303 0.1875 629.54296875 C-1.83147753 627.12405732 -1.83147753 627.12405732 -3.51156616 625.51512146 C-6.40360524 622.53111438 -8.37341627 620.28588264 -8.60791016 616.03466797 C-8.57451012 614.56113591 -8.50791492 613.08810694 -8.4140625 611.6171875 C-8.37437851 610.39586624 -8.37437851 610.39586624 -8.33389282 609.14987183 C-8.27477547 607.3741693 -8.2030585 605.59885167 -8.12023926 603.82409668 C-7.99604909 600.90720367 -7.93308676 597.99430277 -7.88574219 595.07519531 C-7.79805481 589.82990549 -7.65023934 584.58875746 -7.47509766 579.34570312 C-7.40804183 577.18814105 -7.35215752 575.03020446 -7.30712891 572.87207031 C-7.035922 560.1118817 -6.53712864 550.19921745 0 539 C0.66351094 537.49624714 1.30034573 535.98016802 1.8984375 534.44921875 C2.14980469 533.81435547 2.40117188 533.17949219 2.66015625 532.52539062 C2.89605469 531.91888672 3.13195313 531.31238281 3.375 530.6875 C3.63410156 530.03072266 3.89320313 529.37394531 4.16015625 528.69726562 C4.77679521 527.13282974 5.38895029 525.56662744 6 524 C6.33 524 6.66 524 7 524 C7.33 540.5 7.66 557 8 574 C12.95 575.485 12.95 575.485 18 577 C17.98404785 576.11473633 17.9680957 575.22947266 17.95166016 574.31738281 C17.83264209 562.08479853 18.56690097 549.95180753 19.375 537.75 C19.51391827 535.5980029 19.65250599 533.44598445 19.79077148 531.29394531 C20.71701638 516.95841779 21.69637348 502.62699509 22.75732422 488.30078125 C23.22414191 481.9513092 23.67293471 475.60053625 24.125 469.25 C24.29420458 466.8802036 24.4634688 464.51041146 24.6328125 462.140625 C24.73940186 460.64837402 24.73940186 460.64837402 24.84814453 459.12597656 C24.89825684 458.4244043 24.94836914 457.72283203 25 457 C20.7211887 460.69161342 16.49784792 464.3754608 12.5625 468.4375 C11.39344331 469.64316121 10.21142206 470.83691398 9 472 C8.67 472 8.34 472 8 472 C7.6562152 463.36718173 8.98954988 455.37996417 10.578125 446.921875 C11.71040763 440.6134432 12.5788417 434.42110441 12 428 C10.43904523 426.43904523 8.90999105 426.83038072 6.75 426.8125 C3.03578937 426.84197786 0.38887057 427.40523738 -3 429 C-3.99 429 -4.98 429 -6 429 C-6 397.98 -6 366.96 -6 335 C-3.5630981 338.24920254 -1.86164301 341.04313026 -0.08203125 344.640625 C0.44970703 345.71054687 0.98144531 346.78046875 1.52929688 347.8828125 C2.07650391 348.99398438 2.62371094 350.10515625 3.1875 351.25 C3.74630859 352.37664062 4.30511719 353.50328125 4.88085938 354.6640625 C6.25753128 357.44093916 7.63042928 360.21961598 9 363 C20.39998936 346.87542349 20.39998936 346.87542349 23.63671875 327.94921875 C21.28709087 317.06597304 11.63635966 307.08173798 2.78515625 300.671875 C0.72101675 299.38577619 -1.36161552 298.12843737 -3.46875 296.9140625 C-3.99227051 296.61105225 -4.51579102 296.30804199 -5.05517578 295.99584961 C-7.10521107 294.89944972 -7.10521107 294.89944972 -9.81591797 293.94360352 C-13.04105009 292.58133065 -15.41145993 291.36943353 -18 289 C-19.5018653 284.22092101 -19.31341573 279.6582044 -19.125 274.6875 C-19.10439748 272.12892426 -19.08611452 269.57032864 -19.0703125 267.01171875 C-19.05057373 265.80443115 -19.03083496 264.59714355 -19.01049805 263.35327148 C-18.82741091 255.12593977 -18.82741091 255.12593977 -22.4375 248.0625 C-23.283125 247.381875 -24.12875 246.70125 -25 246 C-27 244 -27 244 -27.08422852 240.75048828 C-27.00854932 239.31464857 -26.91799056 237.87955225 -26.81640625 236.4453125 C-26.76617813 235.65706085 -26.71595001 234.8688092 -26.66419983 234.05667114 C-25.87994701 222.94874726 -24.37207831 211.91339792 -22.9375 200.875 C-22.6524132 198.64460551 -22.36790436 196.41413707 -22.08398438 194.18359375 C-21.39596511 188.78819413 -20.7008875 183.39374228 -20 178 C-19.34 178 -18.68 178 -18 178 C-17.66005005 179.76259155 -17.66005005 179.76259155 -17.31323242 181.56079102 C-16.46570237 185.94386988 -15.60779309 190.32486476 -14.74682617 194.70532227 C-14.37650273 196.59702686 -14.00894975 198.4892761 -13.64428711 200.38208008 C-13.11789835 203.11168943 -12.58138776 205.83914763 -12.04296875 208.56640625 C-11.80370918 209.82463951 -11.80370918 209.82463951 -11.55961609 211.10829163 C-10.56494506 216.08540463 -9.1661541 220.40602685 -7 225 C-3.37 225.33 0.26 225.66 4 226 C3.79503906 225.07058594 3.59007812 224.14117187 3.37890625 223.18359375 C3.10949219 221.94738281 2.84007812 220.71117187 2.5625 219.4375 C2.16224609 217.61025391 2.16224609 217.61025391 1.75390625 215.74609375 C0.4400049 209.21743366 -0.14511911 203.01042537 -0.12025452 196.37562561 C-0.12153615 195.1109618 -0.12153615 195.1109618 -0.12284368 193.82074922 C-0.12448438 191.00946516 -0.11900029 188.19824141 -0.11352539 185.38696289 C-0.11324319 183.36625164 -0.1134019 181.34554029 -0.1139679 179.3248291 C-0.11425458 173.84813655 -0.10837863 168.37146594 -0.10139394 162.89477849 C-0.09513899 157.16792617 -0.0945549 151.44107334 -0.09336853 145.71421814 C-0.09026153 134.87361882 -0.08205664 124.0330296 -0.07201904 113.19243473 C-0.06083831 100.84909868 -0.05534251 88.50576215 -0.05032361 76.1624223 C-0.03987352 50.7749426 -0.02228628 25.38747187 0 0 Z " fill="#000000" transform="translate(1284,108)" />
<path d="M0 0 C0.33 0 0.66 0 1 0 C1.29838635 11.34582334 1.57471235 22.69176607 1.81471252 34.03898621 C1.92688281 39.2029592 2.07815855 44.3621332 2.27734375 49.5234375 C2.78471483 65.6273956 2.78471483 65.6273956 -2.58666992 73.34106445 C-7.60231035 82.77712248 -3.47695142 100.66116681 -2.828125 111.10009766 C-2.62758238 114.33336535 -2.4343515 117.56700599 -2.2421875 120.80078125 C-2.11241848 122.93752673 -1.9822228 125.07424634 -1.8515625 127.2109375 C-1.79626373 128.13683685 -1.74096497 129.06273621 -1.68399048 130.01669312 C-1.23764329 137.12441009 -0.65130256 144.2170334 -0.0480957 151.31274414 C0.89284224 162.42320636 1.6863002 173.53905472 2.41613579 184.6651783 C2.62903539 187.90604802 2.84503475 191.14669933 3.06178284 194.38731384 C3.67644647 203.58238743 4.28730385 212.7777082 4.89282227 221.97338867 C5.33914453 228.74430046 5.79016521 235.51488449 6.24609375 242.28515625 C6.31937267 243.37418873 6.3926516 244.46322121 6.46815109 245.58525467 C7.45058704 260.08509586 8.58316297 274.55480614 10.11460876 289.00758362 C10.23155594 290.11423874 10.34850311 291.22089386 10.46899414 292.36108398 C10.57200333 293.29258774 10.67501251 294.22409149 10.78114319 295.18382263 C11.03472705 298.44685621 11 301.72712772 11 305 C-75.13 305 -161.26 305 -250 305 C-250 297.4229388 -249.90257098 290.1314437 -249.265625 282.625 C-249.10368241 280.59938442 -248.94199264 278.57374861 -248.78051758 276.5480957 C-248.69412018 275.48402496 -248.60772278 274.41995422 -248.51870728 273.32363892 C-246.45181862 247.75830368 -244.87507727 222.17594639 -243.43155766 196.56933308 C-243.27055332 193.7162569 -243.10828511 190.86325299 -242.94608879 188.01024437 C-242.83584386 186.05586953 -242.7283658 184.10133922 -242.62098694 182.14680481 C-242.28275804 176.15344337 -241.85682853 170.1935147 -241.22242737 164.22431946 C-240.88486301 160.84860643 -240.70836323 157.47829795 -240.53515625 154.08984375 C-240.47875725 153.01303596 -240.47875725 153.01303596 -240.42121887 151.91447449 C-240.29961893 149.58891661 -240.18104996 147.26321516 -240.0625 144.9375 C-239.89106247 141.63141796 -239.7175722 138.32544753 -239.54296875 135.01953125 C-239.49895935 134.18496399 -239.45494995 133.35039673 -239.40960693 132.49053955 C-239.11180599 126.91220303 -238.7812984 121.33665903 -238.42578125 115.76171875 C-238.35608879 114.66025764 -238.35608879 114.66025764 -238.2849884 113.5365448 C-238.06582062 110.08242871 -237.84165983 106.62882341 -237.60961914 103.17553711 C-237.37156815 99.45134558 -237.1805956 95.7273747 -237 92 C-236.91266602 90.72866211 -236.82533203 89.45732422 -236.73535156 88.14746094 C-236.45382891 81.59248079 -236.51897691 77.16059012 -240.00390625 71.51171875 C-245.14930475 62.46301883 -243.39496744 51.85566983 -242.9375 41.8125 C-242.86757935 39.74683973 -242.80050311 37.68108113 -242.73632812 35.61523438 C-242.35528664 24.06640137 -241.74344917 12.53078918 -241 1 C-237.40881225 4.53523282 -234.20559937 8.15854818 -231.1875 12.1875 C-230.3145917 13.33783919 -229.44088368 14.48757194 -228.56640625 15.63671875 C-228.13602051 16.20310059 -227.70563477 16.76948242 -227.26220703 17.35302734 C-224.24466118 21.29042857 -221.11362785 25.1385576 -218 29 C-217.4328125 29.82628906 -216.865625 30.65257812 -216.28125 31.50390625 C-213.73837 34.28626981 -211.36540049 35.56978561 -208.05883789 37.28149414 C-198.84878204 42.1568004 -198.84878204 42.1568004 -196.54296875 47.1640625 C-196.02411913 50.83397448 -195.95167539 54.29387429 -196 58 C-195.87767984 60.28314724 -195.71556095 62.56098621 -195.54614258 64.84106445 C-195.31762068 68.22455776 -195.16657908 71.61289199 -195 75 C-185.76 75 -176.52 75 -167 75 C-167 71.7 -167 68.4 -167 65 C-160.73 65 -154.46 65 -148 65 C-148 68.3 -148 71.6 -148 75 C-142.06 75 -136.12 75 -130 75 C-130.020625 73.370625 -130.04125 71.74125 -130.0625 70.0625 C-130.08386068 68.37500659 -130.07205511 66.68608966 -130 65 C-128.1144747 63.1144747 -125.42231169 63.86753311 -122.91796875 63.86328125 C-122.12003906 63.86714844 -121.32210938 63.87101562 -120.5 63.875 C-119.30310547 63.86919922 -119.30310547 63.86919922 -118.08203125 63.86328125 C-112.12660767 63.87339233 -112.12660767 63.87339233 -111 65 C-110.85742811 68.33618231 -110.95771843 71.65975606 -111 75 C-105.06 75 -99.12 75 -93 75 C-93 71.7 -93 68.4 -93 65 C-86.4 65 -79.8 65 -73 65 C-73 68.3 -73 71.6 -73 75 C-68.87471501 74.86160047 -64.74985892 74.7130259 -60.625 74.5625 C-59.449375 74.52318359 -58.27375 74.48386719 -57.0625 74.44335938 C-55.94101563 74.40146484 -54.81953125 74.35957031 -53.6640625 74.31640625 C-52.62717285 74.27974854 -51.5902832 74.24309082 -50.52197266 74.20532227 C-48.00574834 74.15835777 -48.00574834 74.15835777 -46 73 C-45.57904572 70.4603217 -45.57904572 70.4603217 -45.47265625 67.390625 C-45.36727539 65.66972656 -45.36727539 65.66972656 -45.25976562 63.9140625 C-45.12910518 61.48714178 -45.00146079 59.06005665 -44.87695312 56.6328125 C-44.80541016 55.48039062 -44.73386719 54.32796875 -44.66015625 53.140625 C-44.60480713 52.08391602 -44.54945801 51.02720703 -44.49243164 49.93847656 C-43.83046179 45.98831835 -42.51706458 43.19347155 -39.33349609 40.68896484 C-38.73617676 40.36621582 -38.13885742 40.0434668 -37.5234375 39.7109375 C-36.85731445 39.33308105 -36.19119141 38.95522461 -35.50488281 38.56591797 C-34.80202148 38.17291504 -34.09916016 37.77991211 -33.375 37.375 C-25.8936259 32.92449884 -21.05332868 28.14038006 -16 21 C-14.44379037 18.91677886 -12.87449088 16.84375072 -11.30566406 14.77001953 C-9.76006765 12.72119484 -8.22816501 10.66282751 -6.69921875 8.6015625 C-4.52280497 5.68594615 -2.34695143 2.78196989 0 0 Z " fill="#000000" transform="translate(1530,1231)" />
<path d="M0 0 C0.33 0 0.66 0 1 0 C3.32586007 33.3043368 3.1271671 66.63521815 3 100 C3.94472168 100.05478516 4.88944336 100.10957031 5.86279297 100.16601562 C15.5317278 100.74063794 25.18119107 101.46807727 34.83105469 102.30224609 C37.15794447 102.50284004 39.48519595 102.69880848 41.8125 102.89453125 C43.3151277 103.02316288 44.81773278 103.1520591 46.3203125 103.28125 C47.00473419 103.338573 47.68915588 103.395896 48.39431763 103.45495605 C52.32500626 103.79891496 56.09237935 104.34872989 60 105 C60 98.4 60 91.8 60 85 C63.09375 84.113125 66.1875 83.22625 69.375 82.3125 C70.41769043 82.01287354 71.46038086 81.71324707 72.53466797 81.40454102 C76.80842354 80.18021987 81.08172696 78.96488225 85.3828125 77.83984375 C95.13172889 75.27361034 104.66121989 72.16092617 114.1875 68.875 C114.82123535 68.65694702 115.4549707 68.43889404 116.10791016 68.2142334 C124.23257273 65.43949485 124.23257273 65.43949485 132.17578125 62.1953125 C135 61 135 61 138 61 C138.14520971 65.5856919 138.28747385 70.17146336 138.42724609 74.75732422 C138.47497923 76.31073347 138.52345663 77.86412007 138.57275391 79.41748047 C138.7147493 83.90047785 138.83733431 88.38336406 138.94140625 92.86740112 C138.99798512 94.92666584 139.08268963 96.98318709 139.171875 99.04125977 C139.20796875 100.26901123 139.2440625 101.4967627 139.28125 102.76171875 C139.32314453 103.83381592 139.36503906 104.90591309 139.40820312 106.01049805 C138.88943288 109.80974548 137.37965691 111.72737883 135 114.6875 C129.51873149 121.98619087 130.23402411 128.69908607 130.828125 137.41650391 C131.00485371 140.07295734 131.11888341 142.72633048 131.21875 145.38671875 C131.52312987 152.97896052 131.97560408 160.46767703 133 168 C133.55349121 168.13575439 134.10698242 168.27150879 134.67724609 168.41137695 C137.24381493 169.04246979 139.8094028 169.6774692 142.375 170.3125 C143.24511719 170.52583984 144.11523438 170.73917969 145.01171875 170.95898438 C151.06651696 172.46147134 157.04093428 174.15453429 163 176 C167.18282368 203.1457342 167.18282368 203.1457342 168.40380859 216.26098633 C168.75164932 220.14426468 168.75164932 220.14426468 169.49560547 223.96435547 C170.01198101 226.04835317 170.26640386 228.03127874 170.46484375 230.16796875 C170.5417041 230.97089355 170.61856445 231.77381836 170.69775391 232.60107422 C170.77687012 233.45459473 170.85598633 234.30811523 170.9375 235.1875 C171.64782065 242.62074077 172.43952298 250.03559438 173.39038086 257.44213867 C173.87104308 261.3208359 174.08468312 265.09247874 174 269 C171.94855438 265.92283157 171.433152 264.06817739 170.703125 260.49609375 C170.46972412 259.37565674 170.23632324 258.25521973 169.99584961 257.10083008 C169.62665405 255.28748169 169.62665405 255.28748169 169.25 253.4375 C168.71638191 250.88769845 168.1811888 248.33822607 167.64453125 245.7890625 C167.50837906 245.13990372 167.37222687 244.49074493 167.23194885 243.82191467 C162.42596121 220.93230441 162.42596121 220.93230441 156.03125 198.44921875 C155 195 155 195 154.65625 192.14453125 C154.26887759 189.44613027 153.6361997 188.16402474 152 186 C150.19913753 184.99221162 150.19913753 184.99221162 148.09375 184.42578125 C147.32119873 184.19084961 146.54864746 183.95591797 145.75268555 183.71386719 C142.61899468 182.87738022 139.4738008 182.15260453 136.29931641 181.48876953 C132.84140185 180.75371486 129.42540332 179.8729885 126 179 C125.34 182.96 124.68 186.92 124 191 C123.67 191 123.34 191 123 191 C120.71425535 175.07273676 119.87872087 159.01933527 119.10009766 142.96166992 C119.00600783 141.11773885 118.89611914 139.27463328 118.78515625 137.43164062 C118.60472996 134.3294131 118.47999901 131.23056771 118.375 128.125 C118.31554199 127.24827637 118.25608398 126.37155273 118.19482422 125.46826172 C118.09090993 119.81641833 119.36041702 117.20148572 122.9765625 112.84765625 C128.3224728 106.1133058 128.12500995 99.60383445 128 91.3125 C128.00811262 89.91729208 128.01980882 88.52210022 128.03515625 87.12695312 C128.05852779 83.74976591 128.04602594 80.37683352 128 77 C127.1970752 77.26627197 126.39415039 77.53254395 125.56689453 77.80688477 C107.49483043 83.7773726 89.43087671 89.21005464 71 94 C70.67 101.59 70.34 109.18 70 117 C59.87137637 117 59.87137637 117 56.27246094 116.68041992 C55.46000916 116.61001999 54.64755737 116.53962006 53.81048584 116.46708679 C52.96036926 116.38900284 52.11025269 116.31091888 51.234375 116.23046875 C50.3202887 116.14879959 49.40620239 116.06713043 48.4644165 115.98298645 C46.53468689 115.8092993 44.60514273 115.63354038 42.67578125 115.45581055 C39.80005664 115.19209047 36.92357539 114.93837029 34.046875 114.68554688 C21.29488547 113.53868788 8.65607017 111.93261612 -4 110 C-3.95432892 110.61211838 -3.90865784 111.22423676 -3.86160278 111.85490417 C0.43836954 169.50563274 0.43836954 169.50563274 2.27490234 197.13330078 C2.53943307 201.11088243 2.80585024 205.08833455 3.07354736 209.06570435 C3.19115373 210.81314126 3.30846345 212.56059817 3.42547607 214.30807495 C4.33082028 227.78637543 5.31080529 241.25833851 6.32191849 254.72904015 C6.52794496 257.47676817 6.73315506 260.22455594 6.93807983 262.97236633 C7.00633406 263.88735744 7.07458828 264.80234854 7.14491081 265.74506664 C7.28359564 267.60429785 7.42225343 269.46353108 7.56088448 271.3227663 C7.97338115 276.84684688 8.3917274 282.37044746 8.81419277 287.89377403 C9.08173568 291.40898386 9.3439645 294.92457734 9.60498238 298.4402771 C9.72777454 300.07911067 9.85274395 301.71778296 9.98017693 303.35626221 C10.82691624 314.2603522 11.15047706 325.06333127 11 336 C7.7 336 4.4 336 1 336 C-2.3717029 307.06821723 -4.52049888 278.10527078 -6.40301514 249.04278564 C-6.99346133 239.9519922 -7.59770348 230.8621028 -8.20072556 221.77213669 C-8.40579376 218.66437346 -8.60762224 215.55641541 -8.80874634 212.44839478 C-9.53163238 201.37464499 -10.36639173 190.31634987 -11.30697632 179.25891495 C-11.90234998 172.2470907 -12.43201217 165.23571227 -12.8515625 158.2109375 C-12.94719986 156.64697739 -12.94719986 156.64697739 -13.04476929 155.05142212 C-13.17544406 152.89976264 -13.30474687 150.74801937 -13.43261719 148.59619141 C-13.62702241 145.34113746 -13.8289637 142.08660389 -14.03125 138.83203125 C-15.93152734 107.70783207 -15.93152734 107.70783207 -12 102.0625 C-7.27677879 94.27196338 -8.51485895 85.81180776 -8.85595703 77.02197266 C-9.04134856 72.14488141 -9.14052179 67.26607744 -9.24609375 62.38671875 C-9.46895382 52.25699539 -9.72643455 42.1284698 -10 32 C-12.14770223 34.74854477 -14.29269933 37.49919068 -16.4375 40.25 C-17.07768066 41.06887695 -17.71786133 41.88775391 -18.37744141 42.73144531 C-21.18809229 46.33694911 -23.98863127 49.9403237 -26.65234375 53.65625 C-31.75371643 60.75693042 -36.53501768 65.23111164 -43.91015625 69.8046875 C-44.90917969 70.42601562 -45.90820312 71.04734375 -46.9375 71.6875 C-48.34322266 72.52861328 -48.34322266 72.52861328 -49.77734375 73.38671875 C-52.28178333 74.87534372 -52.28178333 74.87534372 -53 78 C-53.18205908 79.96684374 -53.31914968 81.93799977 -53.4296875 83.91015625 C-53.50316406 85.06451172 -53.57664062 86.21886719 -53.65234375 87.40820312 C-53.80099028 89.84783177 -53.94159418 92.28796354 -54.07421875 94.72851562 C-54.18830078 96.45811523 -54.18830078 96.45811523 -54.3046875 98.22265625 C-54.3972583 99.81219116 -54.3972583 99.81219116 -54.49169922 101.43383789 C-54.74330811 102.70408813 -54.74330811 102.70408813 -55 104 C-58.44633882 106.29755922 -59.71068391 106.23643976 -63.76171875 106.1953125 C-65.43911133 106.18564453 -65.43911133 106.18564453 -67.15039062 106.17578125 C-68.90125977 106.15064453 -68.90125977 106.15064453 -70.6875 106.125 C-71.86634766 106.11597656 -73.04519531 106.10695313 -74.25976562 106.09765625 C-77.17338026 106.07406423 -80.08658892 106.0411454 -83 106 C-83 102.7 -83 99.4 -83 96 C-89.6 96 -96.2 96 -103 96 C-103 99.3 -103 102.6 -103 106 C-108.94 106 -114.88 106 -121 106 C-121.33 102.7 -121.66 99.4 -122 96 C-127.61 96 -133.22 96 -139 96 C-139.33 99.3 -139.66 102.6 -140 106 C-145.94 106 -151.88 106 -158 106 C-158 102.7 -158 99.4 -158 96 C-164.27 96 -170.54 96 -177 96 C-177 99.3 -177 102.6 -177 106 C-186.24 106 -195.48 106 -205 106 C-205.93063125 103.20810624 -206.25785415 101.01635379 -206.5 98.10546875 C-206.5825 97.14962891 -206.665 96.19378906 -206.75 95.20898438 C-206.8325 94.21189453 -206.915 93.21480469 -207 92.1875 C-207.24276468 89.28760004 -207.49056559 86.3897347 -207.77294922 83.4934082 C-207.95279654 81.51837516 -208.05641917 79.53642024 -208.1328125 77.5546875 C-209.44898234 73.67732231 -212.41104293 72.6537199 -215.875 70.9375 C-224.26112907 66.34786819 -229.32511213 60.55075955 -235 53 C-235.90501147 51.83916065 -236.81257374 50.68030551 -237.72265625 49.5234375 C-241.95595548 44.11734277 -246.07076844 38.63189858 -250 33 C-250.85051487 45.20002664 -251.45407106 57.40462318 -251.83227539 69.62841797 C-251.9026817 71.71708405 -251.98545638 73.80536827 -252.08032227 75.89306641 C-252.91061161 91.23052725 -252.91061161 91.23052725 -247.34375 105.23706055 C-244.61966745 110.83815834 -245.57286425 116.94596575 -246 123 C-246.09783334 124.70547301 -246.1939276 126.41104639 -246.28857422 128.11669922 C-246.56622994 132.88703737 -246.88868096 137.65332693 -247.22488403 142.41986084 C-247.58569819 147.54086353 -247.93050257 152.66292908 -248.2734375 157.78515625 C-248.34001053 158.77765381 -248.40658356 159.77015137 -248.47517395 160.79272461 C-249.0021864 168.76880297 -249.375642 176.7395964 -249.64054871 184.72885132 C-249.87067105 191.04651871 -250.33801516 197.31459542 -250.91015625 203.609375 C-251.75120231 213.29129092 -252.392497 222.97645868 -252.9296875 232.6796875 C-252.96772932 233.36502752 -253.00577114 234.05036755 -253.04496574 234.75647545 C-253.24236487 238.3219094 -253.4377897 241.88744883 -253.63244629 245.45303345 C-255.28591391 275.67809654 -257.37916819 305.84147313 -260 336 C-263.3 336 -266.6 336 -270 336 C-269.6328125 329.94140625 -269.6328125 329.94140625 -269.51486206 327.99714661 C-269.292943 324.33815317 -269.07171159 320.67911992 -268.8515625 317.02001953 C-268.41151678 309.71687548 -267.96537979 302.41435989 -267.4921875 295.11328125 C-266.29704904 276.44736993 -265.4312462 257.77899807 -264.69726562 239.08935547 C-264.36590142 230.76304529 -264.01389823 222.46965746 -263.24780273 214.17016602 C-262.70320919 207.2031244 -262.48022497 200.21346751 -262.18432617 193.23223877 C-261.57958895 179.04909067 -260.93855292 164.86768745 -260.11959839 150.69512939 C-260.00589637 148.72706039 -259.89555638 146.75879801 -259.78540039 144.79052734 C-259.11477763 133.50379198 -258.06559795 122.2552814 -257 111 C-257.75009338 111.07516846 -258.50018677 111.15033691 -259.27301025 111.2277832 C-266.39131359 111.9400577 -273.51015372 112.64659048 -280.62964249 113.34690857 C-284.28856717 113.7070218 -287.94725616 114.06924128 -291.60546875 114.43652344 C-295.14521082 114.79182882 -298.68548942 115.14127616 -302.22618866 115.48690796 C-304.21370496 115.68239332 -306.20064388 115.88372116 -308.18756104 116.08520508 C-309.42794128 116.20532959 -310.66832153 116.3254541 -311.94628906 116.44921875 C-313.02106506 116.55580811 -314.09584106 116.66239746 -315.20318604 116.7722168 C-320.45988665 117.08758334 -325.73384795 117 -331 117 C-331.33 108.75 -331.66 100.5 -332 92 C-334.58972656 91.14277344 -337.17945313 90.28554687 -339.84765625 89.40234375 C-342.37468607 88.54996564 -344.89919845 87.69049549 -347.42358398 86.83032227 C-349.16782724 86.24019389 -350.9145612 85.65737139 -352.66381836 85.08227539 C-355.19047821 84.25014191 -357.70675586 83.39138672 -360.22265625 82.52734375 C-360.99585709 82.27911362 -361.76905792 82.03088348 -362.56568909 81.77513123 C-371.71338351 78.56531454 -376.75781273 71.24755101 -382.59375 63.84375 C-385.54164757 60.35987105 -388.73350713 57.18285578 -392 54 C-392.29178451 59.10622901 -392.54030876 64.20897209 -392.72265625 69.3203125 C-392.8865776 73.89242585 -393.18903707 78.43242663 -393.55859375 82.9921875 C-394.35981663 95.79506136 -394.15863152 104.70935371 -386 115.0625 C-385.33347412 115.81611816 -384.66694824 116.56973633 -383.98022461 117.34619141 C-380.73697086 121.04816634 -378.55067214 123.67765297 -378.453125 128.71875 C-378.59676577 130.81550622 -378.78630291 132.90922195 -379 135 C-379.11648949 136.52306587 -379.22876328 138.0464573 -379.33789062 139.57006836 C-379.7546909 145.19746066 -380.25162239 150.81684217 -380.75 156.4375 C-380.93186599 158.52609636 -381.11342006 160.6147199 -381.29467773 162.70336914 C-381.85508442 169.13629992 -382.42593425 175.56827524 -383 182 C-383.08912659 182.9993457 -383.17825317 183.99869141 -383.27008057 185.02832031 C-385.32511285 208.04239804 -387.45678276 231.04934291 -389.62792969 254.05273438 C-390.2488713 260.64025672 -390.86570822 267.22816358 -391.48287964 273.81604004 C-391.80483793 277.25237454 -392.12703727 280.68868642 -392.44921875 284.125 C-392.55580811 285.26195312 -392.66239746 286.39890625 -392.7722168 287.5703125 C-392.84738525 288.37210938 -392.92255371 289.17390625 -393 290 C-393.33 290 -393.66 290 -394 290 C-394.03064684 276.95834396 -394.05099305 263.91668713 -394.0625 250.875 C-394.06335602 249.91165867 -394.06421204 248.94831734 -394.06509399 247.95578384 C-394.09047466 215.62483774 -393.8223144 183.32176729 -393 151 C-396.70097269 152.34483019 -400.39956583 153.69599922 -404.09619141 155.05273438 C-405.96267728 155.73633064 -407.83093221 156.41509047 -409.69921875 157.09375 C-422.3251743 161.16568522 -422.3251743 161.16568522 -431.875 169.75 C-432.53757812 170.72324219 -433.20015625 171.69648437 -433.8828125 172.69921875 C-436.62329944 176.97174913 -439.33125474 181.26277091 -441.99633789 185.58276367 C-445.33098351 190.98035186 -448.78997308 196.28578952 -452.3125 201.5625 C-453.04968262 202.66863647 -453.04968262 202.66863647 -453.80175781 203.79711914 C-456.78958775 208.25702913 -459.8592468 212.64642407 -463 217 C-463.33 216.34 -463.66 215.68 -464 215 C-463.05742843 212.5848587 -462.03965444 210.28047128 -460.9375 207.9375 C-458.01975175 201.58563572 -455.21870137 195.19497686 -452.5234375 188.74609375 C-452.21920364 188.01996384 -451.91496979 187.29383392 -451.60151672 186.54570007 C-450.36508516 183.59325766 -449.12921103 180.64066835 -447.9057312 177.68283081 C-446.4843969 174.24900498 -445.04303952 170.82881027 -443.52929688 167.43457031 C-442.6573832 165.47638359 -441.81443714 163.50316416 -441.06445312 161.49511719 C-437.46424875 153.59530568 -427.39891106 151.38516663 -419.875 148.5 C-418.28425812 147.86422172 -416.69440296 147.22622011 -415.10546875 146.5859375 C-403.58391652 142 -403.58391652 142 -400 142 C-399.81824219 141.39671875 -399.63648438 140.7934375 -399.44921875 140.171875 C-397.32495164 133.41779497 -397.32495164 133.41779497 -395.25 130.75 C-393.77582941 129.0616341 -393.77582941 129.0616341 -394.07519531 126.81445312 C-394.96851564 124.09581619 -395.68800058 122.98840717 -397.49511719 120.87304688 C-407.62708971 108.97641729 -407.20086451 98.5615663 -406.25 83.5 C-406.14953675 81.2368094 -406.05460756 78.97336668 -405.96508789 76.7097168 C-405.78016014 72.22556543 -405.56571243 67.7445593 -405.32275391 63.26318359 C-405.02499192 57.69353882 -404.8163492 52.12624863 -404.66796875 46.55078125 C-404.64757538 45.78462494 -404.62718201 45.01846863 -404.60617065 44.22909546 C-404.56813695 42.77790364 -404.53049033 41.32670161 -404.49328613 39.87548828 C-404.35917583 34.91604805 -404.17689098 29.95806654 -404 25 C-402 25 -402 25 -400.73046875 26.2578125 C-400.22128906 26.87398437 -399.71210937 27.49015625 -399.1875 28.125 C-395.78368692 32.1399361 -392.23022538 35.98016153 -388.625 39.8125 C-384.6869534 44.01794136 -380.87457111 48.26697783 -377.25 52.75 C-376.53457031 53.62527344 -375.81914063 54.50054688 -375.08203125 55.40234375 C-373.69071204 57.13822981 -372.33359292 58.90207167 -371.01171875 60.69140625 C-365.25498535 67.96592247 -358.90332498 70.57192228 -350.34179688 73.25830078 C-346.901266 74.34799353 -343.4925922 75.52505232 -340.08325195 76.70825195 C-338.36386221 77.30401725 -336.64116231 77.89034314 -334.91479492 78.46557617 C-334.11662354 78.73732666 -333.31845215 79.00907715 -332.49609375 79.2890625 C-331.79669678 79.52318848 -331.0972998 79.75731445 -330.37670898 79.99853516 C-327.11227488 81.37405736 -324.07566372 83.24247788 -321 85 C-321 91.6 -321 98.2 -321 105 C-318.04675781 104.72285156 -315.09351563 104.44570312 -312.05078125 104.16015625 C-309.14805452 103.88849664 -306.24529361 103.61720502 -303.3425293 103.34594727 C-301.34574859 103.15915632 -299.34900288 102.97199087 -297.35229492 102.78442383 C-286.57389406 101.77217732 -275.79919235 100.76688989 -265 100 C-263.84429981 77.06599617 -262.80464303 54.14311346 -262.34204102 31.18334961 C-262.13133761 21.10277693 -261.66210251 11.06109677 -261 1 C-258.21194701 3.73559199 -255.52438716 6.42727499 -253.16015625 9.5390625 C-252.66169189 10.19229492 -252.16322754 10.84552734 -251.6496582 11.51855469 C-251.125896 12.21368164 -250.60213379 12.90880859 -250.0625 13.625 C-249.50328857 14.36137695 -248.94407715 15.09775391 -248.36791992 15.85644531 C-244.1331005 21.45113386 -239.96784843 27.09617845 -235.8125 32.75 C-234.63674483 34.34376924 -233.46096413 35.93751964 -232.28515625 37.53125 C-230.25203313 40.28826593 -228.23944842 43.05789206 -226.24609375 45.84375 C-220.70344614 53.48033405 -214.9355005 59.60237019 -206.03125 63.19921875 C-202.49133774 64.82478372 -200.51079456 65.98020279 -198 69 C-196.00373583 75.33075114 -195.60281726 82.04290887 -195.21435547 88.63745117 C-195.01295326 90.85723382 -194.60435549 92.85877532 -194 95 C-192.35 95.33 -190.7 95.66 -189 96 C-189.01160156 95.36191406 -189.02320313 94.72382812 -189.03515625 94.06640625 C-189.04869141 92.82697266 -189.04869141 92.82697266 -189.0625 91.5625 C-189.07410156 90.73878906 -189.08570313 89.91507813 -189.09765625 89.06640625 C-189 87 -189 87 -188 86 C-186.4818148 85.90421407 -184.95917604 85.87811853 -183.43797302 85.87974548 C-181.95922699 85.87768349 -181.95922699 85.87768349 -180.4506073 85.87557983 C-179.36016617 85.87917511 -178.26972504 85.88277039 -177.14624023 85.88647461 C-176.00492645 85.88632858 -174.86361267 85.88618256 -173.68771362 85.8860321 C-169.89465469 85.88673182 -166.10164416 85.89452693 -162.30859375 85.90234375 C-159.68685432 85.90420772 -157.06511454 85.90563172 -154.44337463 85.90663147 C-148.23498045 85.90974449 -142.02660379 85.91795748 -135.81821734 85.92798096 C-128.75182559 85.93914301 -121.68543301 85.94465278 -114.61903465 85.94967639 C-100.07934715 85.96014012 -85.53967441 85.97793949 -71 86 C-71 88.97 -71 91.94 -71 95 C-69.02 95 -67.04 95 -65 95 C-65.01160156 94.26136719 -65.02320313 93.52273438 -65.03515625 92.76171875 C-65.20919735 73.19452695 -65.20919735 73.19452695 -62 68 C-60.03564453 66.60644531 -60.03564453 66.60644531 -57.6328125 65.328125 C-45.77137272 58.71200507 -37.74019986 52.55149554 -30.39355469 41.12988281 C-27.94257055 37.38384469 -25.26540126 33.80115766 -22.625 30.1875 C-21.54721659 28.69209804 -20.47040503 27.19599519 -19.39453125 25.69921875 C-15.72752767 20.61293896 -12.02608778 15.55234049 -8.3125 10.5 C-7.71195801 9.68039795 -7.11141602 8.8607959 -6.49267578 8.01635742 C-5.93435059 7.25814697 -5.37602539 6.49993652 -4.80078125 5.71875 C-4.30747314 5.04779297 -3.81416504 4.37683594 -3.3059082 3.68554688 C-2 2 -2 2 0 0 Z " fill="#000000" transform="translate(1540,1200)" />
<path d="M0 0 C4.15705636 3.92404085 6.73751808 8.05666905 7.25390625 13.84716797 C7.24846747 18.14448118 7.04847936 22.42125139 6.84375 26.71289062 C6.64178219 33.6513265 7.20792559 39.04571151 11 45 C13.86675364 47.55683433 15.58189193 47.93805806 19.375 48.5 C24.06315573 47.85335783 26.70138049 46.35591563 30 43 C34.29985409 37.25820088 34.74316836 30.98582056 35 24 C39.11943199 26.89473599 41.37127955 29.19956079 43 34 C43.75514874 44.48970252 43.75514874 44.48970252 42 48 C41.08115592 51.32708257 41.08115592 51.32708257 42 55 C45.0677614 57.51953027 48.47323062 59.20829819 52 61 C53.32064453 61.81791016 53.32064453 61.81791016 54.66796875 62.65234375 C57.39788659 64.22993446 58.89593456 64.40842966 62 64 C65.25334259 62.31238846 65.25334259 62.31238846 65.73046875 59.1796875 C65.95669922 57.54386719 65.95669922 57.54386719 66.1875 55.875 C66.34605469 54.77929688 66.50460937 53.68359375 66.66796875 52.5546875 C66.77753906 51.71164063 66.88710937 50.86859375 67 50 C71.13015583 51.37671861 71.93193166 53.40007928 73.94140625 57.1328125 C75.56488156 61.52997442 75.56107652 65.81980571 75.56640625 70.47265625 C76.64052939 79.21079311 81.88516746 84.40071663 88.0625 90.25 C89.49301186 91.62800426 90.92147315 93.00814111 92.34765625 94.390625 C93.29137085 95.2882959 93.29137085 95.2882959 94.25415039 96.20410156 C96.02742025 98.02820632 97.51942066 99.93418109 99 102 C97.53406342 105.38549089 95.65072634 107.59479568 93.04296875 110.1875 C92.25986328 110.96867187 91.47675781 111.74984375 90.66992188 112.5546875 C89.85072266 113.36164063 89.03152344 114.16859375 88.1875 115 C87.37990234 115.80695313 86.57230469 116.61390625 85.74023438 117.4453125 C79.68208326 123.45880894 79.68208326 123.45880894 76.3359375 126.11376953 C70.42565629 130.88622278 66.62270912 139.15019485 65.66796875 146.5859375 C65.40851725 149.05591578 65.18598024 151.52352623 65 154 C61.61939099 150.88628118 59.29079964 148.45912603 58 144 C58 143.01 58 142.02 58 141 C47.19975433 145.42759822 47.19975433 145.42759822 39.875 153.9375 C39.23804078 155.62052234 38.61287093 157.30805719 38 159 C37.1105935 160.61943958 36.19436861 162.2244835 35.25 163.8125 C33.43675515 166.87091616 32.56465395 169.48318792 32 173 C31.34 173 30.68 173 30 173 C28.03388498 168.95520612 27.88668764 166.13114252 28.375 161.6875 C28.48585938 160.61886719 28.59671875 159.55023438 28.7109375 158.44921875 C28.80632812 157.64097656 28.90171875 156.83273438 29 156 C27.60596244 155.89066372 26.20936224 155.81380447 24.8125 155.75 C24.03519531 155.70359375 23.25789063 155.6571875 22.45703125 155.609375 C19.03336619 156.15367787 17.48014308 157.62166904 15 160 C7.65613856 170.25926372 5.25254912 184.04013607 2 196 C0.47899317 193.15897363 -0.53150806 190.44129631 -1.3671875 187.33203125 C-1.61339844 186.43806641 -1.85960937 185.54410156 -2.11328125 184.62304688 C-2.61562839 182.76951474 -3.11568085 180.91535896 -3.61328125 179.06054688 C-6.64147413 167.25952231 -6.64147413 167.25952231 -14 158 C-17.37748174 156.26795808 -20.21060565 155.40167458 -24 156 C-26.35566597 158.35004385 -26.96825531 159.67324136 -27.29296875 163.015625 C-27.24076172 164.61664063 -27.24076172 164.61664063 -27.1875 166.25 C-27.16042969 167.32765625 -27.13335938 168.4053125 -27.10546875 169.515625 C-27.07066406 170.33546875 -27.03585937 171.1553125 -27 172 C-33.87248717 166.87932329 -38.09083885 161.07097336 -39.62890625 152.4921875 C-41.56517657 147.56049045 -44.52996759 146.3441439 -49.125 144.0625 C-49.87910156 143.66482422 -50.63320312 143.26714844 -51.41015625 142.85742188 C-53.26270891 141.88424548 -55.13001817 140.93925056 -57 140 C-57.02709444 142.08326131 -57.04643873 144.16662441 -57.0625 146.25 C-57.07410156 147.41015625 -57.08570313 148.5703125 -57.09765625 149.765625 C-57.01782092 152.40977128 -56.78643778 154.49826091 -56 157 C-62.02025243 155.02428142 -64.6993917 151.23347073 -68 146 C-70.02542235 141.57744858 -70.99018135 137.0713895 -71.875 132.3125 C-73.41042756 125.16780885 -78.62354867 121.3406777 -83.94140625 116.796875 C-93.58273381 108.38129496 -93.58273381 108.38129496 -96 104 C-95.56775286 100.59082501 -94.36023575 99.04577831 -91.875 96.75 C-89.21251963 94.21300539 -86.75573583 91.61612969 -84.375 88.8125 C-82.39576862 86.50043823 -80.6776313 84.75089691 -78.25 82.875 C-73.91097338 79.25914448 -72.96219912 75.13491842 -72.1875 69.75 C-70.80948439 61.32113783 -66.34354353 54.59724429 -60 49 C-59.01 49.495 -59.01 49.495 -58 50 C-58 53.96 -58 57.92 -58 62 C-53.36275244 63.34109974 -53.36275244 63.34109974 -50.375 62.1875 C-47.73057874 59.75184884 -47.48762369 58.75711605 -46.625 55.375 C-44.2921061 46.37107805 -37.54009285 40.26568336 -31 34 C-29.6643047 32.66903282 -28.33043164 31.33622873 -27 30 C-27.02320313 31.27617188 -27.04640625 32.55234375 -27.0703125 33.8671875 C-27.08906829 35.5364525 -27.10726869 37.2057238 -27.125 38.875 C-27.15013672 40.13763672 -27.15013672 40.13763672 -27.17578125 41.42578125 C-27.18222656 42.23144531 -27.18867187 43.03710938 -27.1953125 43.8671875 C-27.20578613 44.61081543 -27.21625977 45.35444336 -27.22705078 46.12060547 C-27.1665597 48.24490235 -27.1665597 48.24490235 -25 50 C-22.77871445 50.02308597 -22.77871445 50.02308597 -20.375 49.625 C-19.55773438 49.51414063 -18.74046875 49.40328125 -17.8984375 49.2890625 C-17.27195312 49.19367188 -16.64546875 49.09828125 -16 49 C-16.0825 48.236875 -16.165 47.47375 -16.25 46.6875 C-15.74528502 39.24295402 -12.9100722 32.95596848 -8.5 27 C-2.38881088 18.69874954 -0.39416142 10.18907274 0 0 Z " fill="#000000" transform="translate(1407,89)" />
<path d="M0 0 C5.70322178 2.23655756 7.92571046 7.53815391 10.41796875 12.89453125 C16.12275849 26.63133541 16.16542061 43.19123817 11.46875 57.28125 C9.1824803 62.57870418 6.26814234 67.16935766 2.1875 71.25 C-1.0625 71.4375 -1.0625 71.4375 -4.8125 70.25 C-14.50341004 60.32999043 -16.10666002 45.79004767 -16.12939453 32.64697266 C-15.94217392 20.57933276 -12.25745806 10.62997789 -4.3046875 1.5234375 C-2.8125 0.25 -2.8125 0.25 0 0 Z " fill="#000000" transform="translate(1408.8125,155.75)" />
<path d="M0 0 C4.57734218 0.63378584 8.41748418 2.43911933 12.5 4.5 C13.2027002 4.85457275 13.90540039 5.20914551 14.62939453 5.57446289 C25.62288316 11.2601073 34.97680106 18.55894292 44 27 C45.5359953 28.36059616 47.07722843 29.71531529 48.625 31.0625 C49.60339844 31.91521484 49.60339844 31.91521484 50.6015625 32.78515625 C51.06304688 33.18605469 51.52453125 33.58695313 52 34 C50.49777181 43.36806191 37.045148 51.37522584 29.85546875 56.6875 C22.02358781 62.21627006 13.0339549 67.69343912 4 71 C3.34 70.67 2.68 70.34 2 70 C2.77923828 69.30777344 2.77923828 69.30777344 3.57421875 68.6015625 C13.17737018 59.61968704 17.81856636 48.43869325 18.3125 35.375 C18.17677098 24.40809516 14.08333265 15.27368523 7 7 C4.7501318 4.85080684 2.43814423 2.94056377 0 1 C0 0.67 0 0.34 0 0 Z " fill="#000000" transform="translate(1434,156)" />
<path d="M0 0 C-0.49628906 0.36609375 -0.99257812 0.7321875 -1.50390625 1.109375 C-9.54437512 7.51733881 -14.72520298 15.958396 -17 26 C-17.18333922 28.69346888 -17.28761696 31.25158448 -17.25 33.9375 C-17.24250732 34.64406738 -17.23501465 35.35063477 -17.22729492 36.07861328 C-16.96090057 48.957813 -11.88845819 58.82977512 -3 68 C-6 69 -6 69 -9.08203125 67.69921875 C-10.33301464 67.04273193 -11.57608149 66.37102297 -12.8125 65.6875 C-13.80902588 65.14270996 -13.80902588 65.14270996 -14.82568359 64.58691406 C-28.71605579 56.8140974 -42.29926515 46.7409173 -52 34 C-42.62375656 24.10710641 -14.82543364 -4.94181121 0 0 Z " fill="#000000" transform="translate(1382,157)" />
<path d="M0 0 C3 1 3 1 4.1328125 3.2578125 C10.07144779 20.41906567 9.10295696 37.33044785 2 54 C1.34 54 0.68 54 0 54 C-3.99198892 44.43348369 -5.5130848 35.5700966 -5.5625 25.1875 C-5.57667969 24.15117432 -5.59085938 23.11484863 -5.60546875 22.04711914 C-5.50287273 13.99269017 -3.59815368 7.19630736 0 0 Z " fill="#000000" transform="translate(1407,166)" />
<path d="M0 0 C0.33 0 0.66 0 1 0 C1 31.02 1 62.04 1 94 C0.01 93.67 -0.98 93.34 -2 93 C-1.34 93 -0.68 93 0 93 C-0.33 64.29 -0.66 35.58 -1 6 C-1.99 6.495 -1.99 6.495 -3 7 C-1.125 1.125 -1.125 1.125 0 0 Z " fill="#000000" transform="translate(1538,443)" />
<path d="M0 0 C0.33 0 0.66 0 1 0 C1 16.5 1 33 1 50 C0.67 50 0.34 50 0 50 C-0.495 29.21 -0.495 29.21 -1 8 C-1.99 8.495 -1.99 8.495 -3 9 C-2.01 6.03 -1.02 3.06 0 0 Z " fill="#000000" transform="translate(1290,632)" />
<path d="M0 0 C0.99 0.33 1.98 0.66 3 1 C-0.07517084 11.55808656 -0.07517084 11.55808656 -2 16 C-3.3805087 12.23331402 -2.59568159 9.55210827 -1.5625 5.75 C-1.27503906 4.67234375 -0.98757813 3.5946875 -0.69140625 2.484375 C-0.46324219 1.66453125 -0.23507812 0.8446875 0 0 Z " fill="#000000" transform="translate(1210,1212)" />
<path d="M0 0 C0.99 0.33 1.98 0.66 3 1 C0.525 4.465 0.525 4.465 -2 8 C-2.33 7.34 -2.66 6.68 -3 6 C-2.06553465 3.96855359 -1.06775224 1.96466413 0 0 Z " fill="#000000" transform="translate(1079,1409)" />
</svg>