<?xml version="1.0" standalone="no"?>
<!DOCTYPE svg PUBLIC "-//W3C//DTD SVG 20010904//EN"
 "http://www.w3.org/TR/2001/REC-SVG-20010904/DTD/svg10.dtd">
<svg version="1.0" xmlns="http://www.w3.org/2000/svg"
 width="256.000000pt" height="256.000000pt" viewBox="0 0 256.000000 256.000000"
 preserveAspectRatio="xMidYMid meet">

<g transform="translate(0.000000,256.000000) scale(0.100000,-0.100000)"
fill="#000000" stroke="none">
<path d="M0 1280 l0 -1280 1280 0 1280 0 0 1280 0 1280 -1280 0 -1280 0 0
-1280z m1600 806 c101 -21 173 -61 234 -127 131 -141 123 -289 -22 -375 -68
-41 -160 -59 -262 -50 -43 4 -81 3 -84 -2 -5 -9 143 -112 162 -112 6 0 63 25
128 55 65 31 121 52 124 48 4 -5 17 -24 29 -45 l21 -36 -32 -20 c-18 -11 -169
-87 -335 -170 -166 -84 -325 -165 -355 -181 l-53 -30 1 -83 c1 -63 6 -94 23
-128 53 -113 138 -170 250 -170 114 1 181 56 181 148 0 38 -5 50 -39 83 -46
46 -77 50 -120 13 -38 -32 -49 -81 -27 -125 20 -40 20 -39 -8 -39 -32 0 -74
45 -82 87 -22 117 56 220 174 230 82 7 151 -30 208 -114 69 -101 77 -208 23
-314 -77 -152 -329 -213 -519 -126 -119 55 -261 171 -342 281 -33 44 -61 82
-63 84 -2 2 -49 -21 -106 -50 -57 -29 -107 -54 -112 -56 -7 -4 -67 115 -67
134 0 6 51 34 113 62 112 51 112 51 109 84 -10 111 -5 268 11 328 41 152 128
281 255 376 87 66 174 105 286 128 37 8 70 17 73 19 2 3 -9 37 -26 77 -33 77
-39 115 -18 123 26 11 205 6 267 -7z"/>
<path d="M1297 1731 c-202 -73 -384 -266 -417 -441 -16 -85 -13 -164 8 -183
26 -24 41 -8 53 58 26 142 91 258 202 362 49 45 97 76 190 123 122 60 125 63
115 86 -15 32 -51 31 -151 -5z"/>
<path d="M1324 1418 c-38 -34 -94 -113 -94 -133 0 -7 10 -16 23 -22 18 -8 42
-1 135 41 61 27 112 53 112 57 0 7 -122 89 -133 89 -3 0 -23 -15 -43 -32z"/>
</g>
</svg>
